<?xml version="1.0" encoding="UTF-8" standalone="no"?>
<!DOCTYPE svg PUBLIC "-//W3C//DTD SVG 1.1//EN"
 "http://www.w3.org/Graphics/SVG/1.1/DTD/svg11.dtd">
<!-- Generated by graphviz version 2.43.0 (0)
 -->
<!-- Title: snakemake_dag Pages: 1 -->
<svg width="597pt" height="404pt"
 viewBox="0.00 0.00 597.00 404.00" xmlns="http://www.w3.org/2000/svg" xmlns:xlink="http://www.w3.org/1999/xlink">
<g id="graph0" class="graph" transform="scale(1 1) rotate(0) translate(4 400)">
<title>snakemake_dag</title>
<polygon fill="white" stroke="transparent" points="-4,4 -4,-400 593,-400 593,4 -4,4"/>
<!-- 0 -->
<g id="node1" class="node">
<title>0</title>
<path fill="none" stroke="#59d856" stroke-width="2" stroke-dasharray="5,2" d="M271.5,-36C271.5,-36 241.5,-36 241.5,-36 235.5,-36 229.5,-30 229.5,-24 229.5,-24 229.5,-12 229.5,-12 229.5,-6 235.5,0 241.5,0 241.5,0 271.5,0 271.5,0 277.5,0 283.5,-6 283.5,-12 283.5,-12 283.5,-24 283.5,-24 283.5,-30 277.5,-36 271.5,-36"/>
<text text-anchor="middle" x="256.5" y="-15.5" font-family="sans" font-size="10.00">all</text>
</g>
<!-- 1 -->
<g id="node2" class="node">
<title>1</title>
<path fill="none" stroke="#afd856" stroke-width="2" stroke-dasharray="5,2" d="M77,-396C77,-396 12,-396 12,-396 6,-396 0,-390 0,-384 0,-384 0,-372 0,-372 0,-366 6,-360 12,-360 12,-360 77,-360 77,-360 83,-360 89,-366 89,-372 89,-372 89,-384 89,-384 89,-390 83,-396 77,-396"/>
<text text-anchor="middle" x="44.5" y="-381" font-family="sans" font-size="10.00">QC</text>
<text text-anchor="middle" x="44.5" y="-370" font-family="sans" font-size="10.00">sample: test_2</text>
</g>
<!-- 1&#45;&gt;0 -->
<g id="edge1" class="edge">
<title>1&#45;&gt;0</title>
<path fill="none" stroke="grey" stroke-width="2" d="M37.42,-359.85C27.19,-333.49 9.5,-281.21 9.5,-235 9.5,-235 9.5,-235 9.5,-161 9.5,-114.03 28.73,-99.92 66.5,-72 112.1,-38.29 178.2,-26.02 219.2,-21.55"/>
<polygon fill="grey" stroke="grey" stroke-width="2" points="219.7,-25.02 229.31,-20.55 219.02,-18.05 219.7,-25.02"/>
</g>
<!-- 3 -->
<g id="node4" class="node">
<title>3</title>
<path fill="none" stroke="#56a9d8" stroke-width="2" stroke-dasharray="5,2" d="M109.5,-324C109.5,-324 49.5,-324 49.5,-324 43.5,-324 37.5,-318 37.5,-312 37.5,-312 37.5,-300 37.5,-300 37.5,-294 43.5,-288 49.5,-288 49.5,-288 109.5,-288 109.5,-288 115.5,-288 121.5,-294 121.5,-300 121.5,-300 121.5,-312 121.5,-312 121.5,-318 115.5,-324 109.5,-324"/>
<text text-anchor="middle" x="79.5" y="-303.5" font-family="sans" font-size="10.00">Bismark_map</text>
</g>
<!-- 1&#45;&gt;3 -->
<g id="edge9" class="edge">
<title>1&#45;&gt;3</title>
<path fill="none" stroke="grey" stroke-width="2" d="M53.15,-359.7C57.14,-351.73 61.95,-342.1 66.37,-333.26"/>
<polygon fill="grey" stroke="grey" stroke-width="2" points="69.61,-334.61 70.95,-324.1 63.35,-331.48 69.61,-334.61"/>
</g>
<!-- 2 -->
<g id="node3" class="node">
<title>2</title>
<path fill="none" stroke="#afd856" stroke-width="2" stroke-dasharray="5,2" d="M381,-396C381,-396 316,-396 316,-396 310,-396 304,-390 304,-384 304,-384 304,-372 304,-372 304,-366 310,-360 316,-360 316,-360 381,-360 381,-360 387,-360 393,-366 393,-372 393,-372 393,-384 393,-384 393,-390 387,-396 381,-396"/>
<text text-anchor="middle" x="348.5" y="-381" font-family="sans" font-size="10.00">QC</text>
<text text-anchor="middle" x="348.5" y="-370" font-family="sans" font-size="10.00">sample: test_1</text>
</g>
<!-- 2&#45;&gt;0 -->
<g id="edge2" class="edge">
<title>2&#45;&gt;0</title>
<path fill="none" stroke="grey" stroke-width="2" d="M341.42,-359.85C331.19,-333.49 313.5,-281.21 313.5,-235 313.5,-235 313.5,-235 313.5,-161 313.5,-120.46 309.86,-109.1 293.5,-72 289.27,-62.4 283.19,-52.74 277.18,-44.35"/>
<polygon fill="grey" stroke="grey" stroke-width="2" points="279.81,-42.02 271.02,-36.11 274.21,-46.22 279.81,-42.02"/>
</g>
<!-- 4 -->
<g id="node5" class="node">
<title>4</title>
<path fill="none" stroke="#56a9d8" stroke-width="2" stroke-dasharray="5,2" d="M413.5,-324C413.5,-324 353.5,-324 353.5,-324 347.5,-324 341.5,-318 341.5,-312 341.5,-312 341.5,-300 341.5,-300 341.5,-294 347.5,-288 353.5,-288 353.5,-288 413.5,-288 413.5,-288 419.5,-288 425.5,-294 425.5,-300 425.5,-300 425.5,-312 425.5,-312 425.5,-318 419.5,-324 413.5,-324"/>
<text text-anchor="middle" x="383.5" y="-303.5" font-family="sans" font-size="10.00">Bismark_map</text>
</g>
<!-- 2&#45;&gt;4 -->
<g id="edge10" class="edge">
<title>2&#45;&gt;4</title>
<path fill="none" stroke="grey" stroke-width="2" d="M357.15,-359.7C361.14,-351.73 365.95,-342.1 370.37,-333.26"/>
<polygon fill="grey" stroke="grey" stroke-width="2" points="373.61,-334.61 374.95,-324.1 367.35,-331.48 373.61,-334.61"/>
</g>
<!-- 3&#45;&gt;0 -->
<g id="edge3" class="edge">
<title>3&#45;&gt;0</title>
<path fill="none" stroke="grey" stroke-width="2" d="M73.86,-287.74C60.84,-244.17 34.16,-129.13 94.5,-72 128.73,-39.6 183.07,-27 219.26,-22.1"/>
<polygon fill="grey" stroke="grey" stroke-width="2" points="219.9,-25.55 229.4,-20.87 219.05,-18.6 219.9,-25.55"/>
</g>
<!-- 6 -->
<g id="node7" class="node">
<title>6</title>
<path fill="none" stroke="#d85656" stroke-width="2" stroke-dasharray="5,2" d="M158.5,-252C158.5,-252 96.5,-252 96.5,-252 90.5,-252 84.5,-246 84.5,-240 84.5,-240 84.5,-228 84.5,-228 84.5,-222 90.5,-216 96.5,-216 96.5,-216 158.5,-216 158.5,-216 164.5,-216 170.5,-222 170.5,-228 170.5,-228 170.5,-240 170.5,-240 170.5,-246 164.5,-252 158.5,-252"/>
<text text-anchor="middle" x="127.5" y="-231.5" font-family="sans" font-size="10.00">samtools_sort</text>
</g>
<!-- 3&#45;&gt;6 -->
<g id="edge12" class="edge">
<title>3&#45;&gt;6</title>
<path fill="none" stroke="grey" stroke-width="2" d="M91.37,-287.7C97,-279.47 103.85,-269.48 110.07,-260.42"/>
<polygon fill="grey" stroke="grey" stroke-width="2" points="113,-262.33 115.77,-252.1 107.23,-258.37 113,-262.33"/>
</g>
<!-- 4&#45;&gt;0 -->
<g id="edge4" class="edge">
<title>4&#45;&gt;0</title>
<path fill="none" stroke="grey" stroke-width="2" d="M380.95,-287.99C373.61,-240.63 351.42,-108.3 327.5,-72 318.63,-58.54 305.12,-47.22 292.26,-38.54"/>
<polygon fill="grey" stroke="grey" stroke-width="2" points="293.83,-35.39 283.52,-32.96 290.07,-41.29 293.83,-35.39"/>
</g>
<!-- 8 -->
<g id="node9" class="node">
<title>8</title>
<path fill="none" stroke="#d85656" stroke-width="2" stroke-dasharray="5,2" d="M461.5,-252C461.5,-252 399.5,-252 399.5,-252 393.5,-252 387.5,-246 387.5,-240 387.5,-240 387.5,-228 387.5,-228 387.5,-222 393.5,-216 399.5,-216 399.5,-216 461.5,-216 461.5,-216 467.5,-216 473.5,-222 473.5,-228 473.5,-228 473.5,-240 473.5,-240 473.5,-246 467.5,-252 461.5,-252"/>
<text text-anchor="middle" x="430.5" y="-231.5" font-family="sans" font-size="10.00">samtools_sort</text>
</g>
<!-- 4&#45;&gt;8 -->
<g id="edge14" class="edge">
<title>4&#45;&gt;8</title>
<path fill="none" stroke="grey" stroke-width="2" d="M395.12,-287.7C400.64,-279.47 407.35,-269.48 413.43,-260.42"/>
<polygon fill="grey" stroke="grey" stroke-width="2" points="416.35,-262.36 419.02,-252.1 410.54,-258.46 416.35,-262.36"/>
</g>
<!-- 5 -->
<g id="node6" class="node">
<title>5</title>
<path fill="none" stroke="#d8ac56" stroke-width="2" stroke-dasharray="5,2" d="M183,-180C183,-180 88,-180 88,-180 82,-180 76,-174 76,-168 76,-168 76,-156 76,-156 76,-150 82,-144 88,-144 88,-144 183,-144 183,-144 189,-144 195,-150 195,-156 195,-156 195,-168 195,-168 195,-174 189,-180 183,-180"/>
<text text-anchor="middle" x="135.5" y="-159.5" font-family="sans" font-size="10.00">Bismark_deduplicate</text>
</g>
<!-- 5&#45;&gt;0 -->
<g id="edge5" class="edge">
<title>5&#45;&gt;0</title>
<path fill="none" stroke="grey" stroke-width="2" d="M120.87,-143.94C106.47,-124.99 88.77,-94.14 104.5,-72 130.35,-35.61 183.12,-24 219.15,-20.41"/>
<polygon fill="grey" stroke="grey" stroke-width="2" points="219.61,-23.88 229.29,-19.56 219.03,-16.91 219.61,-23.88"/>
</g>
<!-- 9 -->
<g id="node10" class="node">
<title>9</title>
<path fill="none" stroke="#56d8a9" stroke-width="2" stroke-dasharray="5,2" d="M273,-108C273,-108 126,-108 126,-108 120,-108 114,-102 114,-96 114,-96 114,-84 114,-84 114,-78 120,-72 126,-72 126,-72 273,-72 273,-72 279,-72 285,-78 285,-84 285,-84 285,-96 285,-96 285,-102 279,-108 273,-108"/>
<text text-anchor="middle" x="199.5" y="-87.5" font-family="sans" font-size="10.00">Bismark_methylation_extractor</text>
</g>
<!-- 5&#45;&gt;9 -->
<g id="edge15" class="edge">
<title>5&#45;&gt;9</title>
<path fill="none" stroke="grey" stroke-width="2" d="M151.32,-143.7C159.07,-135.22 168.54,-124.86 177.02,-115.58"/>
<polygon fill="grey" stroke="grey" stroke-width="2" points="179.7,-117.85 183.86,-108.1 174.53,-113.12 179.7,-117.85"/>
</g>
<!-- 6&#45;&gt;5 -->
<g id="edge11" class="edge">
<title>6&#45;&gt;5</title>
<path fill="none" stroke="grey" stroke-width="2" d="M129.48,-215.7C130.36,-207.98 131.42,-198.71 132.4,-190.11"/>
<polygon fill="grey" stroke="grey" stroke-width="2" points="135.89,-190.44 133.55,-180.1 128.93,-189.64 135.89,-190.44"/>
</g>
<!-- 7 -->
<g id="node8" class="node">
<title>7</title>
<path fill="none" stroke="#d8ac56" stroke-width="2" stroke-dasharray="5,2" d="M487,-180C487,-180 392,-180 392,-180 386,-180 380,-174 380,-168 380,-168 380,-156 380,-156 380,-150 386,-144 392,-144 392,-144 487,-144 487,-144 493,-144 499,-150 499,-156 499,-156 499,-168 499,-168 499,-174 493,-180 487,-180"/>
<text text-anchor="middle" x="439.5" y="-159.5" font-family="sans" font-size="10.00">Bismark_deduplicate</text>
</g>
<!-- 7&#45;&gt;0 -->
<g id="edge6" class="edge">
<title>7&#45;&gt;0</title>
<path fill="none" stroke="grey" stroke-width="2" d="M428.46,-143.72C415.35,-124.27 391.91,-92.7 365.5,-72 343.72,-54.92 315.54,-41.4 293.3,-32.29"/>
<polygon fill="grey" stroke="grey" stroke-width="2" points="294.43,-28.98 283.85,-28.54 291.85,-35.49 294.43,-28.98"/>
</g>
<!-- 10 -->
<g id="node11" class="node">
<title>10</title>
<path fill="none" stroke="#56d8a9" stroke-width="2" stroke-dasharray="5,2" d="M577,-108C577,-108 430,-108 430,-108 424,-108 418,-102 418,-96 418,-96 418,-84 418,-84 418,-78 424,-72 430,-72 430,-72 577,-72 577,-72 583,-72 589,-78 589,-84 589,-84 589,-96 589,-96 589,-102 583,-108 577,-108"/>
<text text-anchor="middle" x="503.5" y="-87.5" font-family="sans" font-size="10.00">Bismark_methylation_extractor</text>
</g>
<!-- 7&#45;&gt;10 -->
<g id="edge16" class="edge">
<title>7&#45;&gt;10</title>
<path fill="none" stroke="grey" stroke-width="2" d="M455.32,-143.7C463.07,-135.22 472.54,-124.86 481.02,-115.58"/>
<polygon fill="grey" stroke="grey" stroke-width="2" points="483.7,-117.85 487.86,-108.1 478.53,-113.12 483.7,-117.85"/>
</g>
<!-- 8&#45;&gt;7 -->
<g id="edge13" class="edge">
<title>8&#45;&gt;7</title>
<path fill="none" stroke="grey" stroke-width="2" d="M432.72,-215.7C433.72,-207.98 434.91,-198.71 436.01,-190.11"/>
<polygon fill="grey" stroke="grey" stroke-width="2" points="439.5,-190.47 437.3,-180.1 432.55,-189.58 439.5,-190.47"/>
</g>
<!-- 9&#45;&gt;0 -->
<g id="edge7" class="edge">
<title>9&#45;&gt;0</title>
<path fill="none" stroke="grey" stroke-width="2" d="M213.59,-71.7C220.42,-63.3 228.76,-53.07 236.26,-43.86"/>
<polygon fill="grey" stroke="grey" stroke-width="2" points="238.97,-46.07 242.57,-36.1 233.54,-41.65 238.97,-46.07"/>
</g>
<!-- 10&#45;&gt;0 -->
<g id="edge8" class="edge">
<title>10&#45;&gt;0</title>
<path fill="none" stroke="grey" stroke-width="2" d="M443.39,-71.97C396.63,-58.71 333.22,-40.74 293.6,-29.51"/>
<polygon fill="grey" stroke="grey" stroke-width="2" points="294.39,-26.1 283.82,-26.74 292.49,-32.84 294.39,-26.1"/>
</g>
</g>
</svg>
