<?xml version="1.0" encoding="UTF-8" standalone="no"?>
<!DOCTYPE svg PUBLIC "-//W3C//DTD SVG 1.1//EN"
 "http://www.w3.org/Graphics/SVG/1.1/DTD/svg11.dtd">
<!-- Generated by graphviz version 2.43.0 (0)
 -->
<!-- Title: snakemake_dag Pages: 1 -->
<svg width="1087pt" height="476pt"
 viewBox="0.00 0.00 1086.50 476.00" xmlns="http://www.w3.org/2000/svg" xmlns:xlink="http://www.w3.org/1999/xlink">
<g id="graph0" class="graph" transform="scale(1 1) rotate(0) translate(4 472)">
<title>snakemake_dag</title>
<polygon fill="white" stroke="transparent" points="-4,4 -4,-472 1082.5,-472 1082.5,4 -4,4"/>
<!-- 0 -->
<g id="node1" class="node">
<title>0</title>
<path fill="none" stroke="#afd856" stroke-width="2" stroke-dasharray="5,2" d="M511.5,-36C511.5,-36 481.5,-36 481.5,-36 475.5,-36 469.5,-30 469.5,-24 469.5,-24 469.5,-12 469.5,-12 469.5,-6 475.5,0 481.5,0 481.5,0 511.5,0 511.5,0 517.5,0 523.5,-6 523.5,-12 523.5,-12 523.5,-24 523.5,-24 523.5,-30 517.5,-36 511.5,-36"/>
<text text-anchor="middle" x="496.5" y="-15.5" font-family="sans" font-size="10.00">all</text>
</g>
<!-- 1 -->
<g id="node2" class="node">
<title>1</title>
<path fill="none" stroke="#56d873" stroke-width="2" stroke-dasharray="5,2" d="M77,-468C77,-468 12,-468 12,-468 6,-468 0,-462 0,-456 0,-456 0,-444 0,-444 0,-438 6,-432 12,-432 12,-432 77,-432 77,-432 83,-432 89,-438 89,-444 89,-444 89,-456 89,-456 89,-462 83,-468 77,-468"/>
<text text-anchor="middle" x="44.5" y="-453" font-family="sans" font-size="10.00">QC</text>
<text text-anchor="middle" x="44.5" y="-442" font-family="sans" font-size="10.00">sample: test_1</text>
</g>
<!-- 1&#45;&gt;0 -->
<g id="edge1" class="edge">
<title>1&#45;&gt;0</title>
<path fill="none" stroke="grey" stroke-width="2" d="M39.04,-431.71C31.15,-405.18 17.5,-352.67 17.5,-307 17.5,-307 17.5,-307 17.5,-161 17.5,-117.63 22.57,-97.7 57.5,-72 120.99,-25.29 365.06,-19.42 459.18,-18.92"/>
<polygon fill="grey" stroke="grey" stroke-width="2" points="459.39,-22.42 469.38,-18.88 459.37,-15.42 459.39,-22.42"/>
</g>
<!-- 5 -->
<g id="node6" class="node">
<title>5</title>
<path fill="none" stroke="#56d8a9" stroke-width="2" stroke-dasharray="5,2" d="M133.5,-396C133.5,-396 67.5,-396 67.5,-396 61.5,-396 55.5,-390 55.5,-384 55.5,-384 55.5,-372 55.5,-372 55.5,-366 61.5,-360 67.5,-360 67.5,-360 133.5,-360 133.5,-360 139.5,-360 145.5,-366 145.5,-372 145.5,-372 145.5,-384 145.5,-384 145.5,-390 139.5,-396 133.5,-396"/>
<text text-anchor="middle" x="100.5" y="-375.5" font-family="sans" font-size="10.00">Bwameth_map</text>
</g>
<!-- 1&#45;&gt;5 -->
<g id="edge13" class="edge">
<title>1&#45;&gt;5</title>
<path fill="none" stroke="grey" stroke-width="2" d="M58.34,-431.7C64.99,-423.39 73.08,-413.28 80.39,-404.14"/>
<polygon fill="grey" stroke="grey" stroke-width="2" points="83.3,-406.1 86.82,-396.1 77.84,-401.73 83.3,-406.1"/>
</g>
<!-- 2 -->
<g id="node3" class="node">
<title>2</title>
<path fill="none" stroke="#56d873" stroke-width="2" stroke-dasharray="5,2" d="M621,-468C621,-468 556,-468 556,-468 550,-468 544,-462 544,-456 544,-456 544,-444 544,-444 544,-438 550,-432 556,-432 556,-432 621,-432 621,-432 627,-432 633,-438 633,-444 633,-444 633,-456 633,-456 633,-462 627,-468 621,-468"/>
<text text-anchor="middle" x="588.5" y="-453" font-family="sans" font-size="10.00">QC</text>
<text text-anchor="middle" x="588.5" y="-442" font-family="sans" font-size="10.00">sample: test_2</text>
</g>
<!-- 2&#45;&gt;0 -->
<g id="edge2" class="edge">
<title>2&#45;&gt;0</title>
<path fill="none" stroke="grey" stroke-width="2" d="M578.97,-431.66C565.5,-405.47 542.5,-353.9 542.5,-307 542.5,-307 542.5,-307 542.5,-161 542.5,-120.46 535.97,-110.24 522.5,-72 519.33,-63.01 515.04,-53.56 510.85,-45.16"/>
<polygon fill="grey" stroke="grey" stroke-width="2" points="513.93,-43.5 506.23,-36.22 507.71,-46.71 513.93,-43.5"/>
</g>
<!-- 8 -->
<g id="node9" class="node">
<title>8</title>
<path fill="none" stroke="#56d8a9" stroke-width="2" stroke-dasharray="5,2" d="M668.5,-396C668.5,-396 602.5,-396 602.5,-396 596.5,-396 590.5,-390 590.5,-384 590.5,-384 590.5,-372 590.5,-372 590.5,-366 596.5,-360 602.5,-360 602.5,-360 668.5,-360 668.5,-360 674.5,-360 680.5,-366 680.5,-372 680.5,-372 680.5,-384 680.5,-384 680.5,-390 674.5,-396 668.5,-396"/>
<text text-anchor="middle" x="635.5" y="-375.5" font-family="sans" font-size="10.00">Bwameth_map</text>
</g>
<!-- 2&#45;&gt;8 -->
<g id="edge16" class="edge">
<title>2&#45;&gt;8</title>
<path fill="none" stroke="grey" stroke-width="2" d="M600.12,-431.7C605.64,-423.47 612.35,-413.48 618.43,-404.42"/>
<polygon fill="grey" stroke="grey" stroke-width="2" points="621.35,-406.36 624.02,-396.1 615.54,-402.46 621.35,-406.36"/>
</g>
<!-- 3 -->
<g id="node4" class="node">
<title>3</title>
<path fill="none" stroke="#5692d8" stroke-width="2" stroke-dasharray="5,2" d="M200.5,-252C200.5,-252 60.5,-252 60.5,-252 54.5,-252 48.5,-246 48.5,-240 48.5,-240 48.5,-228 48.5,-228 48.5,-222 54.5,-216 60.5,-216 60.5,-216 200.5,-216 200.5,-216 206.5,-216 212.5,-222 212.5,-228 212.5,-228 212.5,-240 212.5,-240 212.5,-246 206.5,-252 200.5,-252"/>
<text text-anchor="middle" x="130.5" y="-231.5" font-family="sans" font-size="10.00">samtools_remove_duplication</text>
</g>
<!-- 3&#45;&gt;0 -->
<g id="edge3" class="edge">
<title>3&#45;&gt;0</title>
<path fill="none" stroke="grey" stroke-width="2" d="M114.7,-215.83C87.2,-183.87 36.91,-114.61 74.5,-72 99.8,-43.32 360.6,-26.35 459.1,-20.92"/>
<polygon fill="grey" stroke="grey" stroke-width="2" points="459.41,-24.41 469.2,-20.37 459.03,-17.42 459.41,-24.41"/>
</g>
<!-- 9 -->
<g id="node10" class="node">
<title>9</title>
<path fill="none" stroke="#d85656" stroke-width="2" stroke-dasharray="5,2" d="M165.5,-108C165.5,-108 95.5,-108 95.5,-108 89.5,-108 83.5,-102 83.5,-96 83.5,-96 83.5,-84 83.5,-84 83.5,-78 89.5,-72 95.5,-72 95.5,-72 165.5,-72 165.5,-72 171.5,-72 177.5,-78 177.5,-84 177.5,-84 177.5,-96 177.5,-96 177.5,-102 171.5,-108 165.5,-108"/>
<text text-anchor="middle" x="130.5" y="-87.5" font-family="sans" font-size="10.00">samtools_index</text>
</g>
<!-- 3&#45;&gt;9 -->
<g id="edge17" class="edge">
<title>3&#45;&gt;9</title>
<path fill="none" stroke="grey" stroke-width="2" d="M130.5,-215.87C130.5,-191.67 130.5,-147.21 130.5,-118.39"/>
<polygon fill="grey" stroke="grey" stroke-width="2" points="134,-118.19 130.5,-108.19 127,-118.19 134,-118.19"/>
</g>
<!-- 11 -->
<g id="node12" class="node">
<title>11</title>
<path fill="none" stroke="#70d856" stroke-width="2" stroke-dasharray="5,2" d="M359.5,-108C359.5,-108 207.5,-108 207.5,-108 201.5,-108 195.5,-102 195.5,-96 195.5,-96 195.5,-84 195.5,-84 195.5,-78 201.5,-72 207.5,-72 207.5,-72 359.5,-72 359.5,-72 365.5,-72 371.5,-78 371.5,-84 371.5,-84 371.5,-96 371.5,-96 371.5,-102 365.5,-108 359.5,-108"/>
<text text-anchor="middle" x="283.5" y="-87.5" font-family="sans" font-size="10.00">MethylDackel_extract_methylKit</text>
</g>
<!-- 3&#45;&gt;11 -->
<g id="edge19" class="edge">
<title>3&#45;&gt;11</title>
<path fill="none" stroke="grey" stroke-width="2" d="M148.96,-215.87C176.07,-190.71 226.77,-143.65 257.6,-115.04"/>
<polygon fill="grey" stroke="grey" stroke-width="2" points="260.03,-117.56 264.98,-108.19 255.27,-112.43 260.03,-117.56"/>
</g>
<!-- 14 -->
<g id="node15" class="node">
<title>14</title>
<path fill="none" stroke="#56c9d8" stroke-width="2" stroke-dasharray="5,2" d="M483.5,-180C483.5,-180 343.5,-180 343.5,-180 337.5,-180 331.5,-174 331.5,-168 331.5,-168 331.5,-156 331.5,-156 331.5,-150 337.5,-144 343.5,-144 343.5,-144 483.5,-144 483.5,-144 489.5,-144 495.5,-150 495.5,-156 495.5,-156 495.5,-168 495.5,-168 495.5,-174 489.5,-180 483.5,-180"/>
<text text-anchor="middle" x="413.5" y="-159.5" font-family="sans" font-size="10.00">MethylDackel_cytosine_report</text>
</g>
<!-- 3&#45;&gt;14 -->
<g id="edge22" class="edge">
<title>3&#45;&gt;14</title>
<path fill="none" stroke="grey" stroke-width="2" d="M199.37,-215.97C240.2,-205.87 292.1,-193.03 334.58,-182.52"/>
<polygon fill="grey" stroke="grey" stroke-width="2" points="335.46,-185.91 344.32,-180.11 333.78,-179.11 335.46,-185.91"/>
</g>
<!-- 4 -->
<g id="node5" class="node">
<title>4</title>
<path fill="none" stroke="#d88d56" stroke-width="2" stroke-dasharray="5,2" d="M141.5,-324C141.5,-324 79.5,-324 79.5,-324 73.5,-324 67.5,-318 67.5,-312 67.5,-312 67.5,-300 67.5,-300 67.5,-294 73.5,-288 79.5,-288 79.5,-288 141.5,-288 141.5,-288 147.5,-288 153.5,-294 153.5,-300 153.5,-300 153.5,-312 153.5,-312 153.5,-318 147.5,-324 141.5,-324"/>
<text text-anchor="middle" x="110.5" y="-303.5" font-family="sans" font-size="10.00">samtools_sort</text>
</g>
<!-- 4&#45;&gt;3 -->
<g id="edge11" class="edge">
<title>4&#45;&gt;3</title>
<path fill="none" stroke="grey" stroke-width="2" d="M115.44,-287.7C117.67,-279.9 120.35,-270.51 122.83,-261.83"/>
<polygon fill="grey" stroke="grey" stroke-width="2" points="126.23,-262.68 125.61,-252.1 119.5,-260.76 126.23,-262.68"/>
</g>
<!-- 5&#45;&gt;4 -->
<g id="edge12" class="edge">
<title>5&#45;&gt;4</title>
<path fill="none" stroke="grey" stroke-width="2" d="M102.97,-359.7C104.07,-351.98 105.4,-342.71 106.63,-334.11"/>
<polygon fill="grey" stroke="grey" stroke-width="2" points="110.11,-334.5 108.06,-324.1 103.18,-333.51 110.11,-334.5"/>
</g>
<!-- 6 -->
<g id="node7" class="node">
<title>6</title>
<path fill="none" stroke="#5692d8" stroke-width="2" stroke-dasharray="5,2" d="M725.5,-252C725.5,-252 585.5,-252 585.5,-252 579.5,-252 573.5,-246 573.5,-240 573.5,-240 573.5,-228 573.5,-228 573.5,-222 579.5,-216 585.5,-216 585.5,-216 725.5,-216 725.5,-216 731.5,-216 737.5,-222 737.5,-228 737.5,-228 737.5,-240 737.5,-240 737.5,-246 731.5,-252 725.5,-252"/>
<text text-anchor="middle" x="655.5" y="-231.5" font-family="sans" font-size="10.00">samtools_remove_duplication</text>
</g>
<!-- 6&#45;&gt;0 -->
<g id="edge4" class="edge">
<title>6&#45;&gt;0</title>
<path fill="none" stroke="grey" stroke-width="2" d="M633.34,-215.98C622.03,-206.39 608.74,-193.63 599.5,-180 570.5,-137.24 586.23,-114.26 556.5,-72 548.86,-61.15 538.58,-51.02 528.68,-42.58"/>
<polygon fill="grey" stroke="grey" stroke-width="2" points="530.84,-39.82 520.89,-36.2 526.4,-45.24 530.84,-39.82"/>
</g>
<!-- 10 -->
<g id="node11" class="node">
<title>10</title>
<path fill="none" stroke="#d85656" stroke-width="2" stroke-dasharray="5,2" d="M690.5,-180C690.5,-180 620.5,-180 620.5,-180 614.5,-180 608.5,-174 608.5,-168 608.5,-168 608.5,-156 608.5,-156 608.5,-150 614.5,-144 620.5,-144 620.5,-144 690.5,-144 690.5,-144 696.5,-144 702.5,-150 702.5,-156 702.5,-156 702.5,-168 702.5,-168 702.5,-174 696.5,-180 690.5,-180"/>
<text text-anchor="middle" x="655.5" y="-159.5" font-family="sans" font-size="10.00">samtools_index</text>
</g>
<!-- 6&#45;&gt;10 -->
<g id="edge18" class="edge">
<title>6&#45;&gt;10</title>
<path fill="none" stroke="grey" stroke-width="2" d="M655.5,-215.7C655.5,-207.98 655.5,-198.71 655.5,-190.11"/>
<polygon fill="grey" stroke="grey" stroke-width="2" points="659,-190.1 655.5,-180.1 652,-190.1 659,-190.1"/>
</g>
<!-- 12 -->
<g id="node13" class="node">
<title>12</title>
<path fill="none" stroke="#70d856" stroke-width="2" stroke-dasharray="5,2" d="M884.5,-180C884.5,-180 732.5,-180 732.5,-180 726.5,-180 720.5,-174 720.5,-168 720.5,-168 720.5,-156 720.5,-156 720.5,-150 726.5,-144 732.5,-144 732.5,-144 884.5,-144 884.5,-144 890.5,-144 896.5,-150 896.5,-156 896.5,-156 896.5,-168 896.5,-168 896.5,-174 890.5,-180 884.5,-180"/>
<text text-anchor="middle" x="808.5" y="-159.5" font-family="sans" font-size="10.00">MethylDackel_extract_methylKit</text>
</g>
<!-- 6&#45;&gt;12 -->
<g id="edge20" class="edge">
<title>6&#45;&gt;12</title>
<path fill="none" stroke="grey" stroke-width="2" d="M692.93,-215.88C713.75,-206.35 739.85,-194.41 761.98,-184.28"/>
<polygon fill="grey" stroke="grey" stroke-width="2" points="763.56,-187.41 771.19,-180.07 760.64,-181.05 763.56,-187.41"/>
</g>
<!-- 16 -->
<g id="node17" class="node">
<title>16</title>
<path fill="none" stroke="#56c9d8" stroke-width="2" stroke-dasharray="5,2" d="M1066.5,-180C1066.5,-180 926.5,-180 926.5,-180 920.5,-180 914.5,-174 914.5,-168 914.5,-168 914.5,-156 914.5,-156 914.5,-150 920.5,-144 926.5,-144 926.5,-144 1066.5,-144 1066.5,-144 1072.5,-144 1078.5,-150 1078.5,-156 1078.5,-156 1078.5,-168 1078.5,-168 1078.5,-174 1072.5,-180 1066.5,-180"/>
<text text-anchor="middle" x="996.5" y="-159.5" font-family="sans" font-size="10.00">MethylDackel_cytosine_report</text>
</g>
<!-- 6&#45;&gt;16 -->
<g id="edge24" class="edge">
<title>6&#45;&gt;16</title>
<path fill="none" stroke="grey" stroke-width="2" d="M737.61,-216.14C787.88,-205.83 852.31,-192.6 904.32,-181.92"/>
<polygon fill="grey" stroke="grey" stroke-width="2" points="905.12,-185.33 914.21,-179.89 903.71,-178.47 905.12,-185.33"/>
</g>
<!-- 7 -->
<g id="node8" class="node">
<title>7</title>
<path fill="none" stroke="#d88d56" stroke-width="2" stroke-dasharray="5,2" d="M676.5,-324C676.5,-324 614.5,-324 614.5,-324 608.5,-324 602.5,-318 602.5,-312 602.5,-312 602.5,-300 602.5,-300 602.5,-294 608.5,-288 614.5,-288 614.5,-288 676.5,-288 676.5,-288 682.5,-288 688.5,-294 688.5,-300 688.5,-300 688.5,-312 688.5,-312 688.5,-318 682.5,-324 676.5,-324"/>
<text text-anchor="middle" x="645.5" y="-303.5" font-family="sans" font-size="10.00">samtools_sort</text>
</g>
<!-- 7&#45;&gt;6 -->
<g id="edge14" class="edge">
<title>7&#45;&gt;6</title>
<path fill="none" stroke="grey" stroke-width="2" d="M647.97,-287.7C649.07,-279.98 650.4,-270.71 651.63,-262.11"/>
<polygon fill="grey" stroke="grey" stroke-width="2" points="655.11,-262.5 653.06,-252.1 648.18,-261.51 655.11,-262.5"/>
</g>
<!-- 8&#45;&gt;7 -->
<g id="edge15" class="edge">
<title>8&#45;&gt;7</title>
<path fill="none" stroke="grey" stroke-width="2" d="M637.97,-359.7C639.07,-351.98 640.4,-342.71 641.63,-334.11"/>
<polygon fill="grey" stroke="grey" stroke-width="2" points="645.11,-334.5 643.06,-324.1 638.18,-333.51 645.11,-334.5"/>
</g>
<!-- 9&#45;&gt;0 -->
<g id="edge5" class="edge">
<title>9&#45;&gt;0</title>
<path fill="none" stroke="grey" stroke-width="2" d="M177.74,-74.2C180.7,-73.42 183.63,-72.68 186.5,-72 283.8,-49.01 400.5,-31.79 459.07,-23.85"/>
<polygon fill="grey" stroke="grey" stroke-width="2" points="459.87,-27.28 469.32,-22.48 458.94,-20.34 459.87,-27.28"/>
</g>
<!-- 10&#45;&gt;0 -->
<g id="edge6" class="edge">
<title>10&#45;&gt;0</title>
<path fill="none" stroke="grey" stroke-width="2" d="M646.94,-143.8C636.63,-124.43 617.75,-92.93 594.5,-72 576.46,-55.76 552.56,-42.71 532.88,-33.62"/>
<polygon fill="grey" stroke="grey" stroke-width="2" points="534.16,-30.36 523.61,-29.48 531.31,-36.75 534.16,-30.36"/>
</g>
<!-- 11&#45;&gt;0 -->
<g id="edge7" class="edge">
<title>11&#45;&gt;0</title>
<path fill="none" stroke="grey" stroke-width="2" d="M335.33,-71.97C373.78,-59.33 425.26,-42.41 459.58,-31.13"/>
<polygon fill="grey" stroke="grey" stroke-width="2" points="460.81,-34.41 469.22,-27.97 458.63,-27.76 460.81,-34.41"/>
</g>
<!-- 12&#45;&gt;0 -->
<g id="edge8" class="edge">
<title>12&#45;&gt;0</title>
<path fill="none" stroke="grey" stroke-width="2" d="M774.53,-143.84C737.81,-125.46 677.44,-95.74 624.5,-72 593.95,-58.3 558.77,-43.83 533.04,-33.47"/>
<polygon fill="grey" stroke="grey" stroke-width="2" points="534.25,-30.19 523.66,-29.72 531.64,-36.69 534.25,-30.19"/>
</g>
<!-- 13 -->
<g id="node14" class="node">
<title>13</title>
<path fill="none" stroke="#d8cb56" stroke-width="2" stroke-dasharray="5,2" d="M502,-108C502,-108 401,-108 401,-108 395,-108 389,-102 389,-96 389,-96 389,-84 389,-84 389,-78 395,-72 401,-72 401,-72 502,-72 502,-72 508,-72 514,-78 514,-84 514,-84 514,-96 514,-96 514,-102 508,-108 502,-108"/>
<text text-anchor="middle" x="451.5" y="-87.5" font-family="sans" font-size="10.00">Bgzip_cytosine_report</text>
</g>
<!-- 13&#45;&gt;0 -->
<g id="edge9" class="edge">
<title>13&#45;&gt;0</title>
<path fill="none" stroke="grey" stroke-width="2" d="M462.62,-71.7C467.86,-63.56 474.2,-53.69 479.98,-44.7"/>
<polygon fill="grey" stroke="grey" stroke-width="2" points="483.04,-46.41 485.5,-36.1 477.15,-42.62 483.04,-46.41"/>
</g>
<!-- 14&#45;&gt;13 -->
<g id="edge21" class="edge">
<title>14&#45;&gt;13</title>
<path fill="none" stroke="grey" stroke-width="2" d="M422.89,-143.7C427.26,-135.64 432.56,-125.89 437.4,-116.98"/>
<polygon fill="grey" stroke="grey" stroke-width="2" points="440.52,-118.56 442.21,-108.1 434.37,-115.22 440.52,-118.56"/>
</g>
<!-- 15 -->
<g id="node16" class="node">
<title>15</title>
<path fill="none" stroke="#d8cb56" stroke-width="2" stroke-dasharray="5,2" d="M932,-108C932,-108 831,-108 831,-108 825,-108 819,-102 819,-96 819,-96 819,-84 819,-84 819,-78 825,-72 831,-72 831,-72 932,-72 932,-72 938,-72 944,-78 944,-84 944,-84 944,-96 944,-96 944,-102 938,-108 932,-108"/>
<text text-anchor="middle" x="881.5" y="-87.5" font-family="sans" font-size="10.00">Bgzip_cytosine_report</text>
</g>
<!-- 15&#45;&gt;0 -->
<g id="edge10" class="edge">
<title>15&#45;&gt;0</title>
<path fill="none" stroke="grey" stroke-width="2" d="M818.79,-77.6C737.88,-62.89 599.74,-37.77 533.74,-25.77"/>
<polygon fill="grey" stroke="grey" stroke-width="2" points="534.25,-22.31 523.78,-23.96 533,-29.19 534.25,-22.31"/>
</g>
<!-- 16&#45;&gt;15 -->
<g id="edge23" class="edge">
<title>16&#45;&gt;15</title>
<path fill="none" stroke="grey" stroke-width="2" d="M968.37,-143.88C953.33,-134.72 934.63,-123.34 918.44,-113.48"/>
<polygon fill="grey" stroke="grey" stroke-width="2" points="920.1,-110.4 909.74,-108.19 916.46,-116.38 920.1,-110.4"/>
</g>
</g>
</svg>
