<?xml version="1.0" encoding="UTF-8" standalone="no"?>
<!DOCTYPE svg PUBLIC "-//W3C//DTD SVG 1.1//EN"
 "http://www.w3.org/Graphics/SVG/1.1/DTD/svg11.dtd">
<!-- Generated by graphviz version 2.43.0 (0)
 -->
<!-- Title: snakemake_dag Pages: 1 -->
<svg width="861pt" height="409pt"
 viewBox="0.00 0.00 860.50 409.00" xmlns="http://www.w3.org/2000/svg" xmlns:xlink="http://www.w3.org/1999/xlink">
<g id="graph0" class="graph" transform="scale(1 1) rotate(0) translate(4 405)">
<title>snakemake_dag</title>
<polygon fill="white" stroke="transparent" points="-4,4 -4,-405 856.5,-405 856.5,4 -4,4"/>
<!-- 0 -->
<g id="node1" class="node">
<title>0</title>
<path fill="none" stroke="#56d8a9" stroke-width="2" stroke-dasharray="5,2" d="M446,-36C446,-36 416,-36 416,-36 410,-36 404,-30 404,-24 404,-24 404,-12 404,-12 404,-6 410,0 416,0 416,0 446,0 446,0 452,0 458,-6 458,-12 458,-12 458,-24 458,-24 458,-30 452,-36 446,-36"/>
<text text-anchor="middle" x="431" y="-15.5" font-family="sans" font-size="10.00">all</text>
</g>
<!-- 1 -->
<g id="node2" class="node">
<title>1</title>
<path fill="none" stroke="#afd856" stroke-width="2" stroke-dasharray="5,2" d="M186.5,-401C186.5,-401 127.5,-401 127.5,-401 121.5,-401 115.5,-395 115.5,-389 115.5,-389 115.5,-372 115.5,-372 115.5,-366 121.5,-360 127.5,-360 127.5,-360 186.5,-360 186.5,-360 192.5,-360 198.5,-366 198.5,-372 198.5,-372 198.5,-389 198.5,-389 198.5,-395 192.5,-401 186.5,-401"/>
<text text-anchor="middle" x="157" y="-389" font-family="sans" font-size="10.00">QC</text>
<text text-anchor="middle" x="157" y="-378" font-family="sans" font-size="10.00">sample: test1</text>
<text text-anchor="middle" x="157" y="-367" font-family="sans" font-size="10.00">type: input</text>
</g>
<!-- 1&#45;&gt;0 -->
<g id="edge1" class="edge">
<title>1&#45;&gt;0</title>
<path fill="none" stroke="grey" stroke-width="2" d="M162.59,-359.78C165.52,-349.21 169.1,-335.93 172,-324 191.35,-244.46 162.53,-209.96 211,-144 257,-81.41 344.41,-45.65 394.08,-29.51"/>
<polygon fill="grey" stroke="grey" stroke-width="2" points="395.3,-32.8 403.78,-26.46 393.19,-26.12 395.3,-32.8"/>
</g>
<!-- 7 -->
<g id="node8" class="node">
<title>7</title>
<path fill="none" stroke="#d8ac56" stroke-width="2" stroke-dasharray="5,2" d="M151.5,-324C151.5,-324 92.5,-324 92.5,-324 86.5,-324 80.5,-318 80.5,-312 80.5,-312 80.5,-300 80.5,-300 80.5,-294 86.5,-288 92.5,-288 92.5,-288 151.5,-288 151.5,-288 157.5,-288 163.5,-294 163.5,-300 163.5,-300 163.5,-312 163.5,-312 163.5,-318 157.5,-324 151.5,-324"/>
<text text-anchor="middle" x="122" y="-303.5" font-family="sans" font-size="10.00">Bowtie2_map</text>
</g>
<!-- 1&#45;&gt;7 -->
<g id="edge13" class="edge">
<title>1&#45;&gt;7</title>
<path fill="none" stroke="grey" stroke-width="2" d="M147.44,-359.69C143.51,-351.56 138.91,-342.03 134.71,-333.33"/>
<polygon fill="grey" stroke="grey" stroke-width="2" points="137.86,-331.8 130.36,-324.32 131.56,-334.85 137.86,-331.8"/>
</g>
<!-- 2 -->
<g id="node3" class="node">
<title>2</title>
<path fill="none" stroke="#afd856" stroke-width="2" stroke-dasharray="5,2" d="M400.5,-401C400.5,-401 341.5,-401 341.5,-401 335.5,-401 329.5,-395 329.5,-389 329.5,-389 329.5,-372 329.5,-372 329.5,-366 335.5,-360 341.5,-360 341.5,-360 400.5,-360 400.5,-360 406.5,-360 412.5,-366 412.5,-372 412.5,-372 412.5,-389 412.5,-389 412.5,-395 406.5,-401 400.5,-401"/>
<text text-anchor="middle" x="371" y="-389" font-family="sans" font-size="10.00">QC</text>
<text text-anchor="middle" x="371" y="-378" font-family="sans" font-size="10.00">sample: test1</text>
<text text-anchor="middle" x="371" y="-367" font-family="sans" font-size="10.00">type: IP</text>
</g>
<!-- 2&#45;&gt;0 -->
<g id="edge2" class="edge">
<title>2&#45;&gt;0</title>
<path fill="none" stroke="grey" stroke-width="2" d="M380.3,-359.9C392.4,-332.56 412,-281.16 412,-235 412,-235 412,-235 412,-161 412,-120.86 419.55,-74.9 425.13,-46.4"/>
<polygon fill="grey" stroke="grey" stroke-width="2" points="428.61,-46.88 427.16,-36.39 421.74,-45.5 428.61,-46.88"/>
</g>
<!-- 10 -->
<g id="node11" class="node">
<title>10</title>
<path fill="none" stroke="#d8ac56" stroke-width="2" stroke-dasharray="5,2" d="M360.5,-324C360.5,-324 301.5,-324 301.5,-324 295.5,-324 289.5,-318 289.5,-312 289.5,-312 289.5,-300 289.5,-300 289.5,-294 295.5,-288 301.5,-288 301.5,-288 360.5,-288 360.5,-288 366.5,-288 372.5,-294 372.5,-300 372.5,-300 372.5,-312 372.5,-312 372.5,-318 366.5,-324 360.5,-324"/>
<text text-anchor="middle" x="331" y="-303.5" font-family="sans" font-size="10.00">Bowtie2_map</text>
</g>
<!-- 2&#45;&gt;10 -->
<g id="edge16" class="edge">
<title>2&#45;&gt;10</title>
<path fill="none" stroke="grey" stroke-width="2" d="M360.07,-359.69C355.59,-351.56 350.33,-342.03 345.53,-333.33"/>
<polygon fill="grey" stroke="grey" stroke-width="2" points="348.45,-331.38 340.56,-324.32 342.32,-334.77 348.45,-331.38"/>
</g>
<!-- 3 -->
<g id="node4" class="node">
<title>3</title>
<path fill="none" stroke="#afd856" stroke-width="2" stroke-dasharray="5,2" d="M636.5,-401C636.5,-401 577.5,-401 577.5,-401 571.5,-401 565.5,-395 565.5,-389 565.5,-389 565.5,-372 565.5,-372 565.5,-366 571.5,-360 577.5,-360 577.5,-360 636.5,-360 636.5,-360 642.5,-360 648.5,-366 648.5,-372 648.5,-372 648.5,-389 648.5,-389 648.5,-395 642.5,-401 636.5,-401"/>
<text text-anchor="middle" x="607" y="-389" font-family="sans" font-size="10.00">QC</text>
<text text-anchor="middle" x="607" y="-378" font-family="sans" font-size="10.00">sample: test2</text>
<text text-anchor="middle" x="607" y="-367" font-family="sans" font-size="10.00">type: input</text>
</g>
<!-- 3&#45;&gt;0 -->
<g id="edge3" class="edge">
<title>3&#45;&gt;0</title>
<path fill="none" stroke="grey" stroke-width="2" d="M612.67,-359.58C620.05,-331.89 632,-280.06 632,-235 632,-235 632,-235 632,-161 632,-119.26 631.88,-101.15 602,-72 565.91,-36.78 506.88,-24.92 468.48,-20.95"/>
<polygon fill="grey" stroke="grey" stroke-width="2" points="468.51,-17.44 458.24,-20.03 467.88,-24.41 468.51,-17.44"/>
</g>
<!-- 13 -->
<g id="node14" class="node">
<title>13</title>
<path fill="none" stroke="#d8ac56" stroke-width="2" stroke-dasharray="5,2" d="M581.5,-324C581.5,-324 522.5,-324 522.5,-324 516.5,-324 510.5,-318 510.5,-312 510.5,-312 510.5,-300 510.5,-300 510.5,-294 516.5,-288 522.5,-288 522.5,-288 581.5,-288 581.5,-288 587.5,-288 593.5,-294 593.5,-300 593.5,-300 593.5,-312 593.5,-312 593.5,-318 587.5,-324 581.5,-324"/>
<text text-anchor="middle" x="552" y="-303.5" font-family="sans" font-size="10.00">Bowtie2_map</text>
</g>
<!-- 3&#45;&gt;13 -->
<g id="edge19" class="edge">
<title>3&#45;&gt;13</title>
<path fill="none" stroke="grey" stroke-width="2" d="M591.97,-359.69C585.61,-351.3 578.11,-341.42 571.35,-332.5"/>
<polygon fill="grey" stroke="grey" stroke-width="2" points="573.97,-330.17 565.14,-324.32 568.39,-334.4 573.97,-330.17"/>
</g>
<!-- 4 -->
<g id="node5" class="node">
<title>4</title>
<path fill="none" stroke="#afd856" stroke-width="2" stroke-dasharray="5,2" d="M840.5,-401C840.5,-401 781.5,-401 781.5,-401 775.5,-401 769.5,-395 769.5,-389 769.5,-389 769.5,-372 769.5,-372 769.5,-366 775.5,-360 781.5,-360 781.5,-360 840.5,-360 840.5,-360 846.5,-360 852.5,-366 852.5,-372 852.5,-372 852.5,-389 852.5,-389 852.5,-395 846.5,-401 840.5,-401"/>
<text text-anchor="middle" x="811" y="-389" font-family="sans" font-size="10.00">QC</text>
<text text-anchor="middle" x="811" y="-378" font-family="sans" font-size="10.00">sample: test2</text>
<text text-anchor="middle" x="811" y="-367" font-family="sans" font-size="10.00">type: IP</text>
</g>
<!-- 4&#45;&gt;0 -->
<g id="edge4" class="edge">
<title>4&#45;&gt;0</title>
<path fill="none" stroke="grey" stroke-width="2" d="M820.3,-359.9C832.4,-332.56 852,-281.16 852,-235 852,-235 852,-235 852,-161 852,-80.37 571.21,-36.73 468.26,-23.44"/>
<polygon fill="grey" stroke="grey" stroke-width="2" points="468.66,-19.96 458.3,-22.18 467.78,-26.9 468.66,-19.96"/>
</g>
<!-- 16 -->
<g id="node17" class="node">
<title>16</title>
<path fill="none" stroke="#d8ac56" stroke-width="2" stroke-dasharray="5,2" d="M800.5,-324C800.5,-324 741.5,-324 741.5,-324 735.5,-324 729.5,-318 729.5,-312 729.5,-312 729.5,-300 729.5,-300 729.5,-294 735.5,-288 741.5,-288 741.5,-288 800.5,-288 800.5,-288 806.5,-288 812.5,-294 812.5,-300 812.5,-300 812.5,-312 812.5,-312 812.5,-318 806.5,-324 800.5,-324"/>
<text text-anchor="middle" x="771" y="-303.5" font-family="sans" font-size="10.00">Bowtie2_map</text>
</g>
<!-- 4&#45;&gt;16 -->
<g id="edge22" class="edge">
<title>4&#45;&gt;16</title>
<path fill="none" stroke="grey" stroke-width="2" d="M800.07,-359.69C795.59,-351.56 790.33,-342.03 785.53,-333.33"/>
<polygon fill="grey" stroke="grey" stroke-width="2" points="788.45,-331.38 780.56,-324.32 782.32,-334.77 788.45,-331.38"/>
</g>
<!-- 5 -->
<g id="node6" class="node">
<title>5</title>
<path fill="none" stroke="#56a9d8" stroke-width="2" stroke-dasharray="5,2" d="M152,-180C152,-180 12,-180 12,-180 6,-180 0,-174 0,-168 0,-168 0,-156 0,-156 0,-150 6,-144 12,-144 12,-144 152,-144 152,-144 158,-144 164,-150 164,-156 164,-156 164,-168 164,-168 164,-174 158,-180 152,-180"/>
<text text-anchor="middle" x="82" y="-159.5" font-family="sans" font-size="10.00">samtools_remove_duplication</text>
</g>
<!-- 5&#45;&gt;0 -->
<g id="edge5" class="edge">
<title>5&#45;&gt;0</title>
<path fill="none" stroke="grey" stroke-width="2" d="M72.65,-143.71C63.4,-123.96 52.88,-91.82 70,-72 111.6,-23.85 310.25,-18.63 393.82,-18.62"/>
<polygon fill="grey" stroke="grey" stroke-width="2" points="393.88,-22.12 403.89,-18.64 393.9,-15.12 393.88,-22.12"/>
</g>
<!-- 17 -->
<g id="node18" class="node">
<title>17</title>
<path fill="none" stroke="#59d856" stroke-width="2" stroke-dasharray="5,2" d="M182.5,-108C182.5,-108 91.5,-108 91.5,-108 85.5,-108 79.5,-102 79.5,-96 79.5,-96 79.5,-84 79.5,-84 79.5,-78 85.5,-72 91.5,-72 91.5,-72 182.5,-72 182.5,-72 188.5,-72 194.5,-78 194.5,-84 194.5,-84 194.5,-96 194.5,-96 194.5,-102 188.5,-108 182.5,-108"/>
<text text-anchor="middle" x="137" y="-87.5" font-family="sans" font-size="10.00">Macs2_Peak_calling</text>
</g>
<!-- 5&#45;&gt;17 -->
<g id="edge24" class="edge">
<title>5&#45;&gt;17</title>
<path fill="none" stroke="grey" stroke-width="2" d="M95.6,-143.7C102.12,-135.39 110.07,-125.28 117.25,-116.14"/>
<polygon fill="grey" stroke="grey" stroke-width="2" points="120.13,-118.13 123.56,-108.1 114.63,-113.81 120.13,-118.13"/>
</g>
<!-- 6 -->
<g id="node7" class="node">
<title>6</title>
<path fill="none" stroke="#d85656" stroke-width="2" stroke-dasharray="5,2" d="M133,-252C133,-252 71,-252 71,-252 65,-252 59,-246 59,-240 59,-240 59,-228 59,-228 59,-222 65,-216 71,-216 71,-216 133,-216 133,-216 139,-216 145,-222 145,-228 145,-228 145,-240 145,-240 145,-246 139,-252 133,-252"/>
<text text-anchor="middle" x="102" y="-231.5" font-family="sans" font-size="10.00">samtools_sort</text>
</g>
<!-- 6&#45;&gt;5 -->
<g id="edge11" class="edge">
<title>6&#45;&gt;5</title>
<path fill="none" stroke="grey" stroke-width="2" d="M97.06,-215.7C94.83,-207.9 92.15,-198.51 89.67,-189.83"/>
<polygon fill="grey" stroke="grey" stroke-width="2" points="93,-188.76 86.89,-180.1 86.27,-190.68 93,-188.76"/>
</g>
<!-- 7&#45;&gt;6 -->
<g id="edge12" class="edge">
<title>7&#45;&gt;6</title>
<path fill="none" stroke="grey" stroke-width="2" d="M117.06,-287.7C114.83,-279.9 112.15,-270.51 109.67,-261.83"/>
<polygon fill="grey" stroke="grey" stroke-width="2" points="113,-260.76 106.89,-252.1 106.27,-262.68 113,-260.76"/>
</g>
<!-- 8 -->
<g id="node9" class="node">
<title>8</title>
<path fill="none" stroke="#56a9d8" stroke-width="2" stroke-dasharray="5,2" d="M372,-180C372,-180 232,-180 232,-180 226,-180 220,-174 220,-168 220,-168 220,-156 220,-156 220,-150 226,-144 232,-144 232,-144 372,-144 372,-144 378,-144 384,-150 384,-156 384,-156 384,-168 384,-168 384,-174 378,-180 372,-180"/>
<text text-anchor="middle" x="302" y="-159.5" font-family="sans" font-size="10.00">samtools_remove_duplication</text>
</g>
<!-- 8&#45;&gt;0 -->
<g id="edge6" class="edge">
<title>8&#45;&gt;0</title>
<path fill="none" stroke="grey" stroke-width="2" d="M317.56,-143.87C340.22,-118.92 382.44,-72.45 408.5,-43.77"/>
<polygon fill="grey" stroke="grey" stroke-width="2" points="411.25,-45.94 415.38,-36.19 406.07,-41.24 411.25,-45.94"/>
</g>
<!-- 8&#45;&gt;17 -->
<g id="edge23" class="edge">
<title>8&#45;&gt;17</title>
<path fill="none" stroke="grey" stroke-width="2" d="M261.64,-143.88C238.98,-134.26 210.53,-122.19 186.53,-112.01"/>
<polygon fill="grey" stroke="grey" stroke-width="2" points="187.81,-108.75 177.23,-108.07 185.07,-115.2 187.81,-108.75"/>
</g>
<!-- 9 -->
<g id="node10" class="node">
<title>9</title>
<path fill="none" stroke="#d85656" stroke-width="2" stroke-dasharray="5,2" d="M352,-252C352,-252 290,-252 290,-252 284,-252 278,-246 278,-240 278,-240 278,-228 278,-228 278,-222 284,-216 290,-216 290,-216 352,-216 352,-216 358,-216 364,-222 364,-228 364,-228 364,-240 364,-240 364,-246 358,-252 352,-252"/>
<text text-anchor="middle" x="321" y="-231.5" font-family="sans" font-size="10.00">samtools_sort</text>
</g>
<!-- 9&#45;&gt;8 -->
<g id="edge14" class="edge">
<title>9&#45;&gt;8</title>
<path fill="none" stroke="grey" stroke-width="2" d="M316.3,-215.7C314.19,-207.9 311.64,-198.51 309.28,-189.83"/>
<polygon fill="grey" stroke="grey" stroke-width="2" points="312.64,-188.84 306.64,-180.1 305.88,-190.67 312.64,-188.84"/>
</g>
<!-- 10&#45;&gt;9 -->
<g id="edge15" class="edge">
<title>10&#45;&gt;9</title>
<path fill="none" stroke="grey" stroke-width="2" d="M328.53,-287.7C327.43,-279.98 326.1,-270.71 324.87,-262.11"/>
<polygon fill="grey" stroke="grey" stroke-width="2" points="328.32,-261.51 323.44,-252.1 321.39,-262.5 328.32,-261.51"/>
</g>
<!-- 11 -->
<g id="node12" class="node">
<title>11</title>
<path fill="none" stroke="#56a9d8" stroke-width="2" stroke-dasharray="5,2" d="M592,-180C592,-180 452,-180 452,-180 446,-180 440,-174 440,-168 440,-168 440,-156 440,-156 440,-150 446,-144 452,-144 452,-144 592,-144 592,-144 598,-144 604,-150 604,-156 604,-156 604,-168 604,-168 604,-174 598,-180 592,-180"/>
<text text-anchor="middle" x="522" y="-159.5" font-family="sans" font-size="10.00">samtools_remove_duplication</text>
</g>
<!-- 11&#45;&gt;0 -->
<g id="edge7" class="edge">
<title>11&#45;&gt;0</title>
<path fill="none" stroke="grey" stroke-width="2" d="M501.47,-143.92C490.75,-134.22 478.04,-121.37 469,-108 455.9,-88.62 445.81,-64 439.33,-45.57"/>
<polygon fill="grey" stroke="grey" stroke-width="2" points="442.63,-44.39 436.11,-36.04 436,-46.63 442.63,-44.39"/>
</g>
<!-- 18 -->
<g id="node19" class="node">
<title>18</title>
<path fill="none" stroke="#59d856" stroke-width="2" stroke-dasharray="5,2" d="M581.5,-108C581.5,-108 490.5,-108 490.5,-108 484.5,-108 478.5,-102 478.5,-96 478.5,-96 478.5,-84 478.5,-84 478.5,-78 484.5,-72 490.5,-72 490.5,-72 581.5,-72 581.5,-72 587.5,-72 593.5,-78 593.5,-84 593.5,-84 593.5,-96 593.5,-96 593.5,-102 587.5,-108 581.5,-108"/>
<text text-anchor="middle" x="536" y="-87.5" font-family="sans" font-size="10.00">Macs2_Peak_calling</text>
</g>
<!-- 11&#45;&gt;18 -->
<g id="edge26" class="edge">
<title>11&#45;&gt;18</title>
<path fill="none" stroke="grey" stroke-width="2" d="M525.46,-143.7C527,-135.98 528.86,-126.71 530.58,-118.11"/>
<polygon fill="grey" stroke="grey" stroke-width="2" points="534.05,-118.6 532.58,-108.1 527.19,-117.22 534.05,-118.6"/>
</g>
<!-- 12 -->
<g id="node13" class="node">
<title>12</title>
<path fill="none" stroke="#d85656" stroke-width="2" stroke-dasharray="5,2" d="M563,-252C563,-252 501,-252 501,-252 495,-252 489,-246 489,-240 489,-240 489,-228 489,-228 489,-222 495,-216 501,-216 501,-216 563,-216 563,-216 569,-216 575,-222 575,-228 575,-228 575,-240 575,-240 575,-246 569,-252 563,-252"/>
<text text-anchor="middle" x="532" y="-231.5" font-family="sans" font-size="10.00">samtools_sort</text>
</g>
<!-- 12&#45;&gt;11 -->
<g id="edge17" class="edge">
<title>12&#45;&gt;11</title>
<path fill="none" stroke="grey" stroke-width="2" d="M529.53,-215.7C528.43,-207.98 527.1,-198.71 525.87,-190.11"/>
<polygon fill="grey" stroke="grey" stroke-width="2" points="529.32,-189.51 524.44,-180.1 522.39,-190.5 529.32,-189.51"/>
</g>
<!-- 13&#45;&gt;12 -->
<g id="edge18" class="edge">
<title>13&#45;&gt;12</title>
<path fill="none" stroke="grey" stroke-width="2" d="M547.06,-287.7C544.83,-279.9 542.15,-270.51 539.67,-261.83"/>
<polygon fill="grey" stroke="grey" stroke-width="2" points="543,-260.76 536.89,-252.1 536.27,-262.68 543,-260.76"/>
</g>
<!-- 14 -->
<g id="node15" class="node">
<title>14</title>
<path fill="none" stroke="#56a9d8" stroke-width="2" stroke-dasharray="5,2" d="M812,-180C812,-180 672,-180 672,-180 666,-180 660,-174 660,-168 660,-168 660,-156 660,-156 660,-150 666,-144 672,-144 672,-144 812,-144 812,-144 818,-144 824,-150 824,-156 824,-156 824,-168 824,-168 824,-174 818,-180 812,-180"/>
<text text-anchor="middle" x="742" y="-159.5" font-family="sans" font-size="10.00">samtools_remove_duplication</text>
</g>
<!-- 14&#45;&gt;0 -->
<g id="edge8" class="edge">
<title>14&#45;&gt;0</title>
<path fill="none" stroke="grey" stroke-width="2" d="M728.29,-143.83C711.18,-123.57 680.01,-90.34 646,-72 588.52,-41 512.65,-27.8 468.11,-22.43"/>
<polygon fill="grey" stroke="grey" stroke-width="2" points="468.36,-18.94 458.03,-21.29 467.57,-25.89 468.36,-18.94"/>
</g>
<!-- 14&#45;&gt;18 -->
<g id="edge25" class="edge">
<title>14&#45;&gt;18</title>
<path fill="none" stroke="grey" stroke-width="2" d="M691.87,-143.97C662.96,-134.14 626.43,-121.73 596,-111.39"/>
<polygon fill="grey" stroke="grey" stroke-width="2" points="596.95,-108.01 586.35,-108.11 594.7,-114.64 596.95,-108.01"/>
</g>
<!-- 15 -->
<g id="node16" class="node">
<title>15</title>
<path fill="none" stroke="#d85656" stroke-width="2" stroke-dasharray="5,2" d="M792,-252C792,-252 730,-252 730,-252 724,-252 718,-246 718,-240 718,-240 718,-228 718,-228 718,-222 724,-216 730,-216 730,-216 792,-216 792,-216 798,-216 804,-222 804,-228 804,-228 804,-240 804,-240 804,-246 798,-252 792,-252"/>
<text text-anchor="middle" x="761" y="-231.5" font-family="sans" font-size="10.00">samtools_sort</text>
</g>
<!-- 15&#45;&gt;14 -->
<g id="edge20" class="edge">
<title>15&#45;&gt;14</title>
<path fill="none" stroke="grey" stroke-width="2" d="M756.3,-215.7C754.19,-207.9 751.64,-198.51 749.28,-189.83"/>
<polygon fill="grey" stroke="grey" stroke-width="2" points="752.64,-188.84 746.64,-180.1 745.88,-190.67 752.64,-188.84"/>
</g>
<!-- 16&#45;&gt;15 -->
<g id="edge21" class="edge">
<title>16&#45;&gt;15</title>
<path fill="none" stroke="grey" stroke-width="2" d="M768.53,-287.7C767.43,-279.98 766.1,-270.71 764.87,-262.11"/>
<polygon fill="grey" stroke="grey" stroke-width="2" points="768.32,-261.51 763.44,-252.1 761.39,-262.5 768.32,-261.51"/>
</g>
<!-- 17&#45;&gt;0 -->
<g id="edge9" class="edge">
<title>17&#45;&gt;0</title>
<path fill="none" stroke="grey" stroke-width="2" d="M194.73,-75.25C253.87,-61.17 344.03,-39.71 394.15,-27.77"/>
<polygon fill="grey" stroke="grey" stroke-width="2" points="394.99,-31.17 403.91,-25.45 393.37,-24.36 394.99,-31.17"/>
</g>
<!-- 18&#45;&gt;0 -->
<g id="edge10" class="edge">
<title>18&#45;&gt;0</title>
<path fill="none" stroke="grey" stroke-width="2" d="M510.31,-71.88C496.71,-62.81 479.83,-51.55 465.14,-41.76"/>
<polygon fill="grey" stroke="grey" stroke-width="2" points="467.05,-38.82 456.78,-36.19 463.16,-44.65 467.05,-38.82"/>
</g>
</g>
</svg>
