<?xml version="1.0" encoding="UTF-8" standalone="no"?>
<!DOCTYPE svg PUBLIC "-//W3C//DTD SVG 1.1//EN"
 "http://www.w3.org/Graphics/SVG/1.1/DTD/svg11.dtd">
<!-- Generated by graphviz version 2.43.0 (0)
 -->
<!-- Title: snakemake_dag Pages: 1 -->
<svg width="505pt" height="548pt"
 viewBox="0.00 0.00 505.00 548.00" xmlns="http://www.w3.org/2000/svg" xmlns:xlink="http://www.w3.org/1999/xlink">
<g id="graph0" class="graph" transform="scale(1 1) rotate(0) translate(4 544)">
<title>snakemake_dag</title>
<polygon fill="white" stroke="transparent" points="-4,4 -4,-544 501,-544 501,4 -4,4"/>
<!-- 0 -->
<g id="node1" class="node">
<title>0</title>
<path fill="none" stroke="#d8cb56" stroke-width="2" stroke-dasharray="5,2" d="M258.5,-36C258.5,-36 228.5,-36 228.5,-36 222.5,-36 216.5,-30 216.5,-24 216.5,-24 216.5,-12 216.5,-12 216.5,-6 222.5,0 228.5,0 228.5,0 258.5,0 258.5,0 264.5,0 270.5,-6 270.5,-12 270.5,-12 270.5,-24 270.5,-24 270.5,-30 264.5,-36 258.5,-36"/>
<text text-anchor="middle" x="243.5" y="-15.5" font-family="sans" font-size="10.00">all</text>
</g>
<!-- 1 -->
<g id="node2" class="node">
<title>1</title>
<path fill="none" stroke="#5692d8" stroke-width="2" stroke-dasharray="5,2" d="M103,-540C103,-540 12,-540 12,-540 6,-540 0,-534 0,-528 0,-528 0,-516 0,-516 0,-510 6,-504 12,-504 12,-504 103,-504 103,-504 109,-504 115,-510 115,-516 115,-516 115,-528 115,-528 115,-534 109,-540 103,-540"/>
<text text-anchor="middle" x="57.5" y="-525" font-family="sans" font-size="10.00">QC</text>
<text text-anchor="middle" x="57.5" y="-514" font-family="sans" font-size="10.00">sample: qinL10_test</text>
</g>
<!-- 1&#45;&gt;0 -->
<g id="edge1" class="edge">
<title>1&#45;&gt;0</title>
<path fill="none" stroke="grey" stroke-width="2" d="M50.82,-503.81C41.18,-477.4 24.5,-425.06 24.5,-379 24.5,-379 24.5,-379 24.5,-161 24.5,-75.37 143.84,-38.78 206.33,-25.49"/>
<polygon fill="grey" stroke="grey" stroke-width="2" points="207.1,-28.91 216.21,-23.49 205.71,-22.05 207.1,-28.91"/>
</g>
<!-- 5 -->
<g id="node6" class="node">
<title>5</title>
<path fill="none" stroke="#d85656" stroke-width="2" stroke-dasharray="5,2" d="M110,-468C110,-468 69,-468 69,-468 63,-468 57,-462 57,-456 57,-456 57,-444 57,-444 57,-438 63,-432 69,-432 69,-432 110,-432 110,-432 116,-432 122,-438 122,-444 122,-444 122,-456 122,-456 122,-462 116,-468 110,-468"/>
<text text-anchor="middle" x="89.5" y="-447.5" font-family="sans" font-size="10.00">Bwa_map</text>
</g>
<!-- 1&#45;&gt;5 -->
<g id="edge10" class="edge">
<title>1&#45;&gt;5</title>
<path fill="none" stroke="grey" stroke-width="2" d="M65.41,-503.7C69.05,-495.73 73.45,-486.1 77.49,-477.26"/>
<polygon fill="grey" stroke="grey" stroke-width="2" points="80.71,-478.65 81.68,-468.1 74.34,-475.74 80.71,-478.65"/>
</g>
<!-- 2 -->
<g id="node3" class="node">
<title>2</title>
<path fill="none" stroke="#5692d8" stroke-width="2" stroke-dasharray="5,2" d="M388,-540C388,-540 305,-540 305,-540 299,-540 293,-534 293,-528 293,-528 293,-516 293,-516 293,-510 299,-504 305,-504 305,-504 388,-504 388,-504 394,-504 400,-510 400,-516 400,-516 400,-528 400,-528 400,-534 394,-540 388,-540"/>
<text text-anchor="middle" x="346.5" y="-525" font-family="sans" font-size="10.00">QC</text>
<text text-anchor="middle" x="346.5" y="-514" font-family="sans" font-size="10.00">sample: qinJS_test</text>
</g>
<!-- 2&#45;&gt;0 -->
<g id="edge2" class="edge">
<title>2&#45;&gt;0</title>
<path fill="none" stroke="grey" stroke-width="2" d="M340.43,-503.76C331.66,-477.28 316.5,-424.86 316.5,-379 316.5,-379 316.5,-379 316.5,-161 316.5,-120.55 316.98,-107.45 297.5,-72 291.58,-61.23 282.77,-51.25 273.98,-42.92"/>
<polygon fill="grey" stroke="grey" stroke-width="2" points="276.1,-40.13 266.33,-36.05 271.43,-45.34 276.1,-40.13"/>
</g>
<!-- 8 -->
<g id="node9" class="node">
<title>8</title>
<path fill="none" stroke="#d85656" stroke-width="2" stroke-dasharray="5,2" d="M403,-468C403,-468 362,-468 362,-468 356,-468 350,-462 350,-456 350,-456 350,-444 350,-444 350,-438 356,-432 362,-432 362,-432 403,-432 403,-432 409,-432 415,-438 415,-444 415,-444 415,-456 415,-456 415,-462 409,-468 403,-468"/>
<text text-anchor="middle" x="382.5" y="-447.5" font-family="sans" font-size="10.00">Bwa_map</text>
</g>
<!-- 2&#45;&gt;8 -->
<g id="edge13" class="edge">
<title>2&#45;&gt;8</title>
<path fill="none" stroke="grey" stroke-width="2" d="M355.4,-503.7C359.5,-495.73 364.45,-486.1 368.99,-477.26"/>
<polygon fill="grey" stroke="grey" stroke-width="2" points="372.24,-478.6 373.7,-468.1 366.02,-475.4 372.24,-478.6"/>
</g>
<!-- 3 -->
<g id="node4" class="node">
<title>3</title>
<path fill="none" stroke="#56d873" stroke-width="2" stroke-dasharray="5,2" d="M179,-324C179,-324 78,-324 78,-324 72,-324 66,-318 66,-312 66,-312 66,-300 66,-300 66,-294 72,-288 78,-288 78,-288 179,-288 179,-288 185,-288 191,-294 191,-300 191,-300 191,-312 191,-312 191,-318 185,-324 179,-324"/>
<text text-anchor="middle" x="128.5" y="-303.5" font-family="sans" font-size="10.00">GATK_MarkDuplicates</text>
</g>
<!-- 3&#45;&gt;0 -->
<g id="edge3" class="edge">
<title>3&#45;&gt;0</title>
<path fill="none" stroke="grey" stroke-width="2" d="M115.57,-287.53C94.93,-257.36 59.07,-193.94 81.5,-144 105.82,-89.85 167.41,-53.13 207.26,-34.16"/>
<polygon fill="grey" stroke="grey" stroke-width="2" points="208.78,-37.31 216.39,-29.94 205.85,-30.96 208.78,-37.31"/>
</g>
<!-- 9 -->
<g id="node10" class="node">
<title>9</title>
<path fill="none" stroke="#70d856" stroke-width="2" stroke-dasharray="5,2" d="M172.5,-180C172.5,-180 102.5,-180 102.5,-180 96.5,-180 90.5,-174 90.5,-168 90.5,-168 90.5,-156 90.5,-156 90.5,-150 96.5,-144 102.5,-144 102.5,-144 172.5,-144 172.5,-144 178.5,-144 184.5,-150 184.5,-156 184.5,-156 184.5,-168 184.5,-168 184.5,-174 178.5,-180 172.5,-180"/>
<text text-anchor="middle" x="137.5" y="-159.5" font-family="sans" font-size="10.00">samtools_index</text>
</g>
<!-- 3&#45;&gt;9 -->
<g id="edge14" class="edge">
<title>3&#45;&gt;9</title>
<path fill="none" stroke="grey" stroke-width="2" d="M129.59,-287.87C131.12,-263.67 133.94,-219.21 135.76,-190.39"/>
<polygon fill="grey" stroke="grey" stroke-width="2" points="139.27,-190.39 136.41,-180.19 132.28,-189.95 139.27,-190.39"/>
</g>
<!-- 13 -->
<g id="node14" class="node">
<title>13</title>
<path fill="none" stroke="#56c9d8" stroke-width="2" stroke-dasharray="5,2" d="M260,-252C260,-252 195,-252 195,-252 189,-252 183,-246 183,-240 183,-240 183,-228 183,-228 183,-222 189,-216 195,-216 195,-216 260,-216 260,-216 266,-216 272,-222 272,-228 272,-228 272,-240 272,-240 272,-246 266,-252 260,-252"/>
<text text-anchor="middle" x="227.5" y="-231.5" font-family="sans" font-size="10.00">Variant_calling</text>
</g>
<!-- 3&#45;&gt;13 -->
<g id="edge19" class="edge">
<title>3&#45;&gt;13</title>
<path fill="none" stroke="grey" stroke-width="2" d="M152.72,-287.88C165.42,-278.89 181.16,-267.76 194.92,-258.03"/>
<polygon fill="grey" stroke="grey" stroke-width="2" points="197.04,-260.82 203.19,-252.19 193,-255.11 197.04,-260.82"/>
</g>
<!-- 4 -->
<g id="node5" class="node">
<title>4</title>
<path fill="none" stroke="#afd856" stroke-width="2" stroke-dasharray="5,2" d="M146.5,-396C146.5,-396 84.5,-396 84.5,-396 78.5,-396 72.5,-390 72.5,-384 72.5,-384 72.5,-372 72.5,-372 72.5,-366 78.5,-360 84.5,-360 84.5,-360 146.5,-360 146.5,-360 152.5,-360 158.5,-366 158.5,-372 158.5,-372 158.5,-384 158.5,-384 158.5,-390 152.5,-396 146.5,-396"/>
<text text-anchor="middle" x="115.5" y="-375.5" font-family="sans" font-size="10.00">samtools_sort</text>
</g>
<!-- 4&#45;&gt;3 -->
<g id="edge8" class="edge">
<title>4&#45;&gt;3</title>
<path fill="none" stroke="grey" stroke-width="2" d="M118.71,-359.7C120.15,-351.98 121.87,-342.71 123.46,-334.11"/>
<polygon fill="grey" stroke="grey" stroke-width="2" points="126.94,-334.58 125.32,-324.1 120.06,-333.3 126.94,-334.58"/>
</g>
<!-- 5&#45;&gt;4 -->
<g id="edge9" class="edge">
<title>5&#45;&gt;4</title>
<path fill="none" stroke="grey" stroke-width="2" d="M95.93,-431.7C98.86,-423.81 102.39,-414.3 105.64,-405.55"/>
<polygon fill="grey" stroke="grey" stroke-width="2" points="108.95,-406.7 109.15,-396.1 102.38,-404.26 108.95,-406.7"/>
</g>
<!-- 6 -->
<g id="node7" class="node">
<title>6</title>
<path fill="none" stroke="#56d873" stroke-width="2" stroke-dasharray="5,2" d="M485,-324C485,-324 384,-324 384,-324 378,-324 372,-318 372,-312 372,-312 372,-300 372,-300 372,-294 378,-288 384,-288 384,-288 485,-288 485,-288 491,-288 497,-294 497,-300 497,-300 497,-312 497,-312 497,-318 491,-324 485,-324"/>
<text text-anchor="middle" x="434.5" y="-303.5" font-family="sans" font-size="10.00">GATK_MarkDuplicates</text>
</g>
<!-- 6&#45;&gt;0 -->
<g id="edge4" class="edge">
<title>6&#45;&gt;0</title>
<path fill="none" stroke="grey" stroke-width="2" d="M444.25,-287.84C466.62,-245.96 515.89,-137.17 464.5,-72 442.02,-43.49 337.64,-28.58 280.74,-22.45"/>
<polygon fill="grey" stroke="grey" stroke-width="2" points="281,-18.96 270.69,-21.41 280.28,-25.92 281,-18.96"/>
</g>
<!-- 10 -->
<g id="node11" class="node">
<title>10</title>
<path fill="none" stroke="#70d856" stroke-width="2" stroke-dasharray="5,2" d="M443.5,-108C443.5,-108 373.5,-108 373.5,-108 367.5,-108 361.5,-102 361.5,-96 361.5,-96 361.5,-84 361.5,-84 361.5,-78 367.5,-72 373.5,-72 373.5,-72 443.5,-72 443.5,-72 449.5,-72 455.5,-78 455.5,-84 455.5,-84 455.5,-96 455.5,-96 455.5,-102 449.5,-108 443.5,-108"/>
<text text-anchor="middle" x="408.5" y="-87.5" font-family="sans" font-size="10.00">samtools_index</text>
</g>
<!-- 6&#45;&gt;10 -->
<g id="edge15" class="edge">
<title>6&#45;&gt;10</title>
<path fill="none" stroke="grey" stroke-width="2" d="M437.75,-287.89C439.55,-277.54 441.59,-264.06 442.5,-252 443.7,-236.04 444.62,-231.86 442.5,-216 437.87,-181.32 426.31,-142.63 417.95,-117.61"/>
<polygon fill="grey" stroke="grey" stroke-width="2" points="421.25,-116.43 414.71,-108.09 414.62,-118.69 421.25,-116.43"/>
</g>
<!-- 14 -->
<g id="node15" class="node">
<title>14</title>
<path fill="none" stroke="#56c9d8" stroke-width="2" stroke-dasharray="5,2" d="M422,-252C422,-252 357,-252 357,-252 351,-252 345,-246 345,-240 345,-240 345,-228 345,-228 345,-222 351,-216 357,-216 357,-216 422,-216 422,-216 428,-216 434,-222 434,-228 434,-228 434,-240 434,-240 434,-246 428,-252 422,-252"/>
<text text-anchor="middle" x="389.5" y="-231.5" font-family="sans" font-size="10.00">Variant_calling</text>
</g>
<!-- 6&#45;&gt;14 -->
<g id="edge20" class="edge">
<title>6&#45;&gt;14</title>
<path fill="none" stroke="grey" stroke-width="2" d="M423.38,-287.7C418.14,-279.56 411.8,-269.69 406.02,-260.7"/>
<polygon fill="grey" stroke="grey" stroke-width="2" points="408.85,-258.62 400.5,-252.1 402.96,-262.41 408.85,-258.62"/>
</g>
<!-- 7 -->
<g id="node8" class="node">
<title>7</title>
<path fill="none" stroke="#afd856" stroke-width="2" stroke-dasharray="5,2" d="M428.5,-396C428.5,-396 366.5,-396 366.5,-396 360.5,-396 354.5,-390 354.5,-384 354.5,-384 354.5,-372 354.5,-372 354.5,-366 360.5,-360 366.5,-360 366.5,-360 428.5,-360 428.5,-360 434.5,-360 440.5,-366 440.5,-372 440.5,-372 440.5,-384 440.5,-384 440.5,-390 434.5,-396 428.5,-396"/>
<text text-anchor="middle" x="397.5" y="-375.5" font-family="sans" font-size="10.00">samtools_sort</text>
</g>
<!-- 7&#45;&gt;6 -->
<g id="edge11" class="edge">
<title>7&#45;&gt;6</title>
<path fill="none" stroke="grey" stroke-width="2" d="M406.65,-359.7C410.9,-351.64 416.06,-341.89 420.77,-332.98"/>
<polygon fill="grey" stroke="grey" stroke-width="2" points="423.88,-334.58 425.46,-324.1 417.69,-331.31 423.88,-334.58"/>
</g>
<!-- 8&#45;&gt;7 -->
<g id="edge12" class="edge">
<title>8&#45;&gt;7</title>
<path fill="none" stroke="grey" stroke-width="2" d="M386.21,-431.7C387.86,-423.98 389.85,-414.71 391.69,-406.11"/>
<polygon fill="grey" stroke="grey" stroke-width="2" points="395.16,-406.62 393.83,-396.1 388.32,-405.15 395.16,-406.62"/>
</g>
<!-- 9&#45;&gt;0 -->
<g id="edge5" class="edge">
<title>9&#45;&gt;0</title>
<path fill="none" stroke="grey" stroke-width="2" d="M145.83,-143.75C155.2,-125.17 171.47,-95.15 189.5,-72 197.45,-61.8 207.27,-51.61 216.34,-42.92"/>
<polygon fill="grey" stroke="grey" stroke-width="2" points="218.82,-45.4 223.74,-36.02 214.04,-40.29 218.82,-45.4"/>
</g>
<!-- 10&#45;&gt;0 -->
<g id="edge6" class="edge">
<title>10&#45;&gt;0</title>
<path fill="none" stroke="grey" stroke-width="2" d="M368.14,-71.88C341.23,-60.46 306.16,-45.58 280.08,-34.52"/>
<polygon fill="grey" stroke="grey" stroke-width="2" points="281.13,-31.16 270.55,-30.48 278.39,-37.61 281.13,-31.16"/>
</g>
<!-- 11 -->
<g id="node12" class="node">
<title>11</title>
<path fill="none" stroke="#56d8a9" stroke-width="2" stroke-dasharray="5,2" d="M276.5,-108C276.5,-108 210.5,-108 210.5,-108 204.5,-108 198.5,-102 198.5,-96 198.5,-96 198.5,-84 198.5,-84 198.5,-78 204.5,-72 210.5,-72 210.5,-72 276.5,-72 276.5,-72 282.5,-72 288.5,-78 288.5,-84 288.5,-84 288.5,-96 288.5,-96 288.5,-102 282.5,-108 276.5,-108"/>
<text text-anchor="middle" x="243.5" y="-87.5" font-family="sans" font-size="10.00">Genotype_gvcf</text>
</g>
<!-- 11&#45;&gt;0 -->
<g id="edge7" class="edge">
<title>11&#45;&gt;0</title>
<path fill="none" stroke="grey" stroke-width="2" d="M243.5,-71.7C243.5,-63.98 243.5,-54.71 243.5,-46.11"/>
<polygon fill="grey" stroke="grey" stroke-width="2" points="247,-46.1 243.5,-36.1 240,-46.1 247,-46.1"/>
</g>
<!-- 12 -->
<g id="node13" class="node">
<title>12</title>
<path fill="none" stroke="#d88d56" stroke-width="2" stroke-dasharray="5,2" d="M276.5,-180C276.5,-180 214.5,-180 214.5,-180 208.5,-180 202.5,-174 202.5,-168 202.5,-168 202.5,-156 202.5,-156 202.5,-150 208.5,-144 214.5,-144 214.5,-144 276.5,-144 276.5,-144 282.5,-144 288.5,-150 288.5,-156 288.5,-156 288.5,-168 288.5,-168 288.5,-174 282.5,-180 276.5,-180"/>
<text text-anchor="middle" x="245.5" y="-159.5" font-family="sans" font-size="10.00">Combine_gvcf</text>
</g>
<!-- 12&#45;&gt;11 -->
<g id="edge16" class="edge">
<title>12&#45;&gt;11</title>
<path fill="none" stroke="grey" stroke-width="2" d="M245.01,-143.7C244.79,-135.98 244.52,-126.71 244.27,-118.11"/>
<polygon fill="grey" stroke="grey" stroke-width="2" points="247.77,-118 243.99,-108.1 240.78,-118.2 247.77,-118"/>
</g>
<!-- 13&#45;&gt;12 -->
<g id="edge17" class="edge">
<title>13&#45;&gt;12</title>
<path fill="none" stroke="grey" stroke-width="2" d="M231.95,-215.7C233.95,-207.9 236.37,-198.51 238.6,-189.83"/>
<polygon fill="grey" stroke="grey" stroke-width="2" points="242,-190.66 241.1,-180.1 235.22,-188.92 242,-190.66"/>
</g>
<!-- 14&#45;&gt;12 -->
<g id="edge18" class="edge">
<title>14&#45;&gt;12</title>
<path fill="none" stroke="grey" stroke-width="2" d="M354.27,-215.88C334.92,-206.47 310.73,-194.71 290.07,-184.67"/>
<polygon fill="grey" stroke="grey" stroke-width="2" points="291.39,-181.41 280.86,-180.19 288.33,-187.71 291.39,-181.41"/>
</g>
</g>
</svg>
