<?xml version="1.0" encoding="UTF-8" standalone="no"?>
<!DOCTYPE svg PUBLIC "-//W3C//DTD SVG 1.1//EN"
 "http://www.w3.org/Graphics/SVG/1.1/DTD/svg11.dtd">
<!-- Generated by graphviz version 2.42.3 (20191010.1750)
 -->
<!-- Title: snakemake_dag Pages: 1 -->
<svg width="402pt" height="332pt"
 viewBox="0.00 0.00 402.00 332.00" xmlns="http://www.w3.org/2000/svg" xmlns:xlink="http://www.w3.org/1999/xlink">
<g id="graph0" class="graph" transform="scale(1 1) rotate(0) translate(4 328)">
<title>snakemake_dag</title>
<polygon fill="white" stroke="transparent" points="-4,4 -4,-328 398,-328 398,4 -4,4"/>
<!-- 0 -->
<g id="node1" class="node">
<title>0</title>
<path fill="none" stroke="#d8bc56" stroke-width="2" d="M225,-36C225,-36 195,-36 195,-36 189,-36 183,-30 183,-24 183,-24 183,-12 183,-12 183,-6 189,0 195,0 195,0 225,0 225,0 231,0 237,-6 237,-12 237,-12 237,-24 237,-24 237,-30 231,-36 225,-36"/>
<text text-anchor="middle" x="210" y="-15.5" font-family="sans" font-size="10.00">all</text>
</g>
<!-- 1 -->
<g id="node2" class="node">
<title>1</title>
<path fill="none" stroke="#56d88a" stroke-width="2" stroke-dasharray="5,2" d="M64,-324C64,-324 12,-324 12,-324 6,-324 0,-318 0,-312 0,-312 0,-300 0,-300 0,-294 6,-288 12,-288 12,-288 64,-288 64,-288 70,-288 76,-294 76,-300 76,-300 76,-312 76,-312 76,-318 70,-324 64,-324"/>
<text text-anchor="middle" x="38" y="-309" font-family="sans" font-size="10.00">QC</text>
<text text-anchor="middle" x="38" y="-298" font-family="sans" font-size="10.00">sample: Pps</text>
</g>
<!-- 1&#45;&gt;0 -->
<g id="edge1" class="edge">
<title>1&#45;&gt;0</title>
<path fill="none" stroke="grey" stroke-width="2" d="M31.01,-287.8C19.81,-257.52 1.02,-193.22 21,-144 46.97,-80.02 126.17,-45.02 173.4,-29.33"/>
<polygon fill="grey" stroke="grey" stroke-width="2" points="174.51,-32.65 182.97,-26.27 172.38,-25.98 174.51,-32.65"/>
</g>
<!-- 5 -->
<g id="node6" class="node">
<title>5</title>
<path fill="none" stroke="#d85656" stroke-width="2" d="M95,-252C95,-252 45,-252 45,-252 39,-252 33,-246 33,-240 33,-240 33,-228 33,-228 33,-222 39,-216 45,-216 45,-216 95,-216 95,-216 101,-216 107,-222 107,-228 107,-228 107,-240 107,-240 107,-246 101,-252 95,-252"/>
<text text-anchor="middle" x="70" y="-231.5" font-family="sans" font-size="10.00">hisat2_map</text>
</g>
<!-- 1&#45;&gt;5 -->
<g id="edge9" class="edge">
<title>1&#45;&gt;5</title>
<path fill="none" stroke="grey" stroke-width="2" d="M45.91,-287.7C49.55,-279.73 53.95,-270.1 57.99,-261.26"/>
<polygon fill="grey" stroke="grey" stroke-width="2" points="61.21,-262.65 62.18,-252.1 54.84,-259.74 61.21,-262.65"/>
</g>
<!-- 2 -->
<g id="node3" class="node">
<title>2</title>
<path fill="none" stroke="#56d88a" stroke-width="2" stroke-dasharray="5,2" d="M225.5,-324C225.5,-324 182.5,-324 182.5,-324 176.5,-324 170.5,-318 170.5,-312 170.5,-312 170.5,-300 170.5,-300 170.5,-294 176.5,-288 182.5,-288 182.5,-288 225.5,-288 225.5,-288 231.5,-288 237.5,-294 237.5,-300 237.5,-300 237.5,-312 237.5,-312 237.5,-318 231.5,-324 225.5,-324"/>
<text text-anchor="middle" x="204" y="-309" font-family="sans" font-size="10.00">QC</text>
<text text-anchor="middle" x="204" y="-298" font-family="sans" font-size="10.00">sample: js</text>
</g>
<!-- 2&#45;&gt;0 -->
<g id="edge2" class="edge">
<title>2&#45;&gt;0</title>
<path fill="none" stroke="grey" stroke-width="2" d="M212.94,-287.84C217.75,-277.7 223.25,-264.45 226,-252 242.17,-178.85 226.66,-89.92 216.78,-46.09"/>
<polygon fill="grey" stroke="grey" stroke-width="2" points="220.16,-45.15 214.47,-36.2 213.34,-46.74 220.16,-45.15"/>
</g>
<!-- 7 -->
<g id="node8" class="node">
<title>7</title>
<path fill="none" stroke="#d85656" stroke-width="2" d="M205,-252C205,-252 155,-252 155,-252 149,-252 143,-246 143,-240 143,-240 143,-228 143,-228 143,-222 149,-216 155,-216 155,-216 205,-216 205,-216 211,-216 217,-222 217,-228 217,-228 217,-240 217,-240 217,-246 211,-252 205,-252"/>
<text text-anchor="middle" x="180" y="-231.5" font-family="sans" font-size="10.00">hisat2_map</text>
</g>
<!-- 2&#45;&gt;7 -->
<g id="edge11" class="edge">
<title>2&#45;&gt;7</title>
<path fill="none" stroke="grey" stroke-width="2" d="M198.07,-287.7C195.39,-279.9 192.17,-270.51 189.2,-261.83"/>
<polygon fill="grey" stroke="grey" stroke-width="2" points="192.42,-260.43 185.86,-252.1 185.8,-262.7 192.42,-260.43"/>
</g>
<!-- 3 -->
<g id="node4" class="node">
<title>3</title>
<path fill="none" stroke="#56d88a" stroke-width="2" stroke-dasharray="5,2" d="M382,-324C382,-324 330,-324 330,-324 324,-324 318,-318 318,-312 318,-312 318,-300 318,-300 318,-294 324,-288 330,-288 330,-288 382,-288 382,-288 388,-288 394,-294 394,-300 394,-300 394,-312 394,-312 394,-318 388,-324 382,-324"/>
<text text-anchor="middle" x="356" y="-309" font-family="sans" font-size="10.00">QC</text>
<text text-anchor="middle" x="356" y="-298" font-family="sans" font-size="10.00">sample: L10</text>
</g>
<!-- 3&#45;&gt;0 -->
<g id="edge3" class="edge">
<title>3&#45;&gt;0</title>
<path fill="none" stroke="grey" stroke-width="2" d="M363.04,-287.62C374.28,-257.05 392.88,-192.33 371,-144 346.68,-90.28 285.8,-53.53 246.27,-34.42"/>
<polygon fill="grey" stroke="grey" stroke-width="2" points="247.74,-31.25 237.2,-30.17 244.76,-37.58 247.74,-31.25"/>
</g>
<!-- 9 -->
<g id="node10" class="node">
<title>9</title>
<path fill="none" stroke="#d85656" stroke-width="2" d="M347,-252C347,-252 297,-252 297,-252 291,-252 285,-246 285,-240 285,-240 285,-228 285,-228 285,-222 291,-216 297,-216 297,-216 347,-216 347,-216 353,-216 359,-222 359,-228 359,-228 359,-240 359,-240 359,-246 353,-252 347,-252"/>
<text text-anchor="middle" x="322" y="-231.5" font-family="sans" font-size="10.00">hisat2_map</text>
</g>
<!-- 3&#45;&gt;9 -->
<g id="edge13" class="edge">
<title>3&#45;&gt;9</title>
<path fill="none" stroke="grey" stroke-width="2" d="M347.6,-287.7C343.73,-279.73 339.05,-270.1 334.76,-261.26"/>
<polygon fill="grey" stroke="grey" stroke-width="2" points="337.83,-259.57 330.31,-252.1 331.53,-262.63 337.83,-259.57"/>
</g>
<!-- 4 -->
<g id="node5" class="node">
<title>4</title>
<path fill="none" stroke="#56c1d8" stroke-width="2" d="M104,-180C104,-180 42,-180 42,-180 36,-180 30,-174 30,-168 30,-168 30,-156 30,-156 30,-150 36,-144 42,-144 42,-144 104,-144 104,-144 110,-144 116,-150 116,-156 116,-156 116,-168 116,-168 116,-174 110,-180 104,-180"/>
<text text-anchor="middle" x="73" y="-159.5" font-family="sans" font-size="10.00">samtools_sort</text>
</g>
<!-- 4&#45;&gt;0 -->
<g id="edge4" class="edge">
<title>4&#45;&gt;0</title>
<path fill="none" stroke="grey" stroke-width="2" d="M78.56,-143.84C85.51,-124.51 98.98,-93.05 119,-72 134.34,-55.87 155.68,-43.09 173.84,-34.13"/>
<polygon fill="grey" stroke="grey" stroke-width="2" points="175.45,-37.23 182.99,-29.79 172.46,-30.91 175.45,-37.23"/>
</g>
<!-- 10 -->
<g id="node11" class="node">
<title>10</title>
<path fill="none" stroke="#88d856" stroke-width="2" d="M170,-108C170,-108 140,-108 140,-108 134,-108 128,-102 128,-96 128,-96 128,-84 128,-84 128,-78 134,-72 140,-72 140,-72 170,-72 170,-72 176,-72 182,-78 182,-84 182,-84 182,-96 182,-96 182,-102 176,-108 170,-108"/>
<text text-anchor="middle" x="155" y="-87.5" font-family="sans" font-size="10.00">counts</text>
</g>
<!-- 4&#45;&gt;10 -->
<g id="edge14" class="edge">
<title>4&#45;&gt;10</title>
<path fill="none" stroke="grey" stroke-width="2" d="M93.27,-143.7C103.5,-134.97 116.06,-124.24 127.18,-114.75"/>
<polygon fill="grey" stroke="grey" stroke-width="2" points="129.63,-117.26 134.96,-108.1 125.09,-111.94 129.63,-117.26"/>
</g>
<!-- 5&#45;&gt;4 -->
<g id="edge8" class="edge">
<title>5&#45;&gt;4</title>
<path fill="none" stroke="grey" stroke-width="2" d="M70.74,-215.7C71.07,-207.98 71.47,-198.71 71.84,-190.11"/>
<polygon fill="grey" stroke="grey" stroke-width="2" points="75.34,-190.25 72.27,-180.1 68.34,-189.95 75.34,-190.25"/>
</g>
<!-- 6 -->
<g id="node7" class="node">
<title>6</title>
<path fill="none" stroke="#56c1d8" stroke-width="2" d="M208,-180C208,-180 146,-180 146,-180 140,-180 134,-174 134,-168 134,-168 134,-156 134,-156 134,-150 140,-144 146,-144 146,-144 208,-144 208,-144 214,-144 220,-150 220,-156 220,-156 220,-168 220,-168 220,-174 214,-180 208,-180"/>
<text text-anchor="middle" x="177" y="-159.5" font-family="sans" font-size="10.00">samtools_sort</text>
</g>
<!-- 6&#45;&gt;0 -->
<g id="edge5" class="edge">
<title>6&#45;&gt;0</title>
<path fill="none" stroke="grey" stroke-width="2" d="M181.75,-143.87C184.56,-133.51 188.13,-120.03 191,-108 195.92,-87.38 200.9,-63.93 204.53,-46.28"/>
<polygon fill="grey" stroke="grey" stroke-width="2" points="208.03,-46.61 206.6,-36.12 201.17,-45.22 208.03,-46.61"/>
</g>
<!-- 6&#45;&gt;10 -->
<g id="edge15" class="edge">
<title>6&#45;&gt;10</title>
<path fill="none" stroke="grey" stroke-width="2" d="M171.56,-143.7C169.11,-135.9 166.16,-126.51 163.43,-117.83"/>
<polygon fill="grey" stroke="grey" stroke-width="2" points="166.71,-116.59 160.38,-108.1 160.04,-118.69 166.71,-116.59"/>
</g>
<!-- 7&#45;&gt;6 -->
<g id="edge10" class="edge">
<title>7&#45;&gt;6</title>
<path fill="none" stroke="grey" stroke-width="2" d="M179.26,-215.7C178.93,-207.98 178.53,-198.71 178.16,-190.11"/>
<polygon fill="grey" stroke="grey" stroke-width="2" points="181.66,-189.95 177.73,-180.1 174.66,-190.25 181.66,-189.95"/>
</g>
<!-- 8 -->
<g id="node9" class="node">
<title>8</title>
<path fill="none" stroke="#56c1d8" stroke-width="2" d="M350,-180C350,-180 288,-180 288,-180 282,-180 276,-174 276,-168 276,-168 276,-156 276,-156 276,-150 282,-144 288,-144 288,-144 350,-144 350,-144 356,-144 362,-150 362,-156 362,-156 362,-168 362,-168 362,-174 356,-180 350,-180"/>
<text text-anchor="middle" x="319" y="-159.5" font-family="sans" font-size="10.00">samtools_sort</text>
</g>
<!-- 8&#45;&gt;0 -->
<g id="edge6" class="edge">
<title>8&#45;&gt;0</title>
<path fill="none" stroke="grey" stroke-width="2" d="M309.47,-143.9C298.87,-125.44 280.75,-95.54 262,-72 254.17,-62.17 244.77,-52.15 236.12,-43.5"/>
<polygon fill="grey" stroke="grey" stroke-width="2" points="238.37,-40.8 228.78,-36.29 233.47,-45.8 238.37,-40.8"/>
</g>
<!-- 8&#45;&gt;10 -->
<g id="edge16" class="edge">
<title>8&#45;&gt;10</title>
<path fill="none" stroke="grey" stroke-width="2" d="M278.88,-143.88C252.31,-132.53 217.72,-117.77 191.84,-106.73"/>
<polygon fill="grey" stroke="grey" stroke-width="2" points="192.96,-103.4 182.39,-102.69 190.21,-109.84 192.96,-103.4"/>
</g>
<!-- 9&#45;&gt;8 -->
<g id="edge12" class="edge">
<title>9&#45;&gt;8</title>
<path fill="none" stroke="grey" stroke-width="2" d="M321.26,-215.7C320.93,-207.98 320.53,-198.71 320.16,-190.11"/>
<polygon fill="grey" stroke="grey" stroke-width="2" points="323.66,-189.95 319.73,-180.1 316.66,-190.25 323.66,-189.95"/>
</g>
<!-- 10&#45;&gt;0 -->
<g id="edge7" class="edge">
<title>10&#45;&gt;0</title>
<path fill="none" stroke="grey" stroke-width="2" d="M168.6,-71.7C175.12,-63.39 183.07,-53.28 190.25,-44.14"/>
<polygon fill="grey" stroke="grey" stroke-width="2" points="193.13,-46.13 196.56,-36.1 187.63,-41.81 193.13,-46.13"/>
</g>
</g>
</svg>
