<?xml version="1.0" encoding="UTF-8" standalone="no"?>
<!DOCTYPE svg PUBLIC "-//W3C//DTD SVG 1.1//EN"
 "http://www.w3.org/Graphics/SVG/1.1/DTD/svg11.dtd">
<!-- Generated by graphviz version 2.42.3 (20191010.1750)
 -->
<!-- Title: snakemake_dag Pages: 1 -->
<svg width="424pt" height="332pt"
 viewBox="0.00 0.00 423.50 332.00" xmlns="http://www.w3.org/2000/svg" xmlns:xlink="http://www.w3.org/1999/xlink">
<g id="graph0" class="graph" transform="scale(1 1) rotate(0) translate(4 328)">
<title>snakemake_dag</title>
<polygon fill="white" stroke="transparent" points="-4,4 -4,-328 419.5,-328 419.5,4 -4,4"/>
<!-- 0 -->
<g id="node1" class="node">
<title>0</title>
<path fill="none" stroke="#d85656" stroke-width="2" d="M225,-36C225,-36 195,-36 195,-36 189,-36 183,-30 183,-24 183,-24 183,-12 183,-12 183,-6 189,0 195,0 195,0 225,0 225,0 231,0 237,-6 237,-12 237,-12 237,-24 237,-24 237,-30 231,-36 225,-36"/>
<text text-anchor="middle" x="210" y="-15.5" font-family="sans" font-size="10.00">all</text>
</g>
<!-- 1 -->
<g id="node2" class="node">
<title>1</title>
<path fill="none" stroke="#56d88a" stroke-width="2" stroke-dasharray="5,2" d="M64,-324C64,-324 12,-324 12,-324 6,-324 0,-318 0,-312 0,-312 0,-300 0,-300 0,-294 6,-288 12,-288 12,-288 64,-288 64,-288 70,-288 76,-294 76,-300 76,-300 76,-312 76,-312 76,-318 70,-324 64,-324"/>
<text text-anchor="middle" x="38" y="-309" font-family="sans" font-size="10.00">QC</text>
<text text-anchor="middle" x="38" y="-298" font-family="sans" font-size="10.00">sample: L10</text>
</g>
<!-- 1&#45;&gt;0 -->
<g id="edge1" class="edge">
<title>1&#45;&gt;0</title>
<path fill="none" stroke="grey" stroke-width="2" d="M32.45,-287.85C27.39,-269.87 21.34,-240.82 26,-216 38.75,-148.02 35.96,-120.77 85,-72 109.01,-48.12 145.43,-34.35 172.78,-26.87"/>
<polygon fill="grey" stroke="grey" stroke-width="2" points="173.96,-30.18 182.77,-24.3 172.21,-23.4 173.96,-30.18"/>
</g>
<!-- 4 -->
<g id="node5" class="node">
<title>4</title>
<path fill="none" stroke="#88d856" stroke-width="2" d="M91,-252C91,-252 47,-252 47,-252 41,-252 35,-246 35,-240 35,-240 35,-228 35,-228 35,-222 41,-216 47,-216 47,-216 91,-216 91,-216 97,-216 103,-222 103,-228 103,-228 103,-240 103,-240 103,-246 97,-252 91,-252"/>
<text text-anchor="middle" x="69" y="-231.5" font-family="sans" font-size="10.00">STAR_map</text>
</g>
<!-- 1&#45;&gt;4 -->
<g id="edge8" class="edge">
<title>1&#45;&gt;4</title>
<path fill="none" stroke="grey" stroke-width="2" d="M45.66,-287.7C49.19,-279.73 53.46,-270.1 57.37,-261.26"/>
<polygon fill="grey" stroke="grey" stroke-width="2" points="60.58,-262.67 61.43,-252.1 54.18,-259.83 60.58,-262.67"/>
</g>
<!-- 2 -->
<g id="node3" class="node">
<title>2</title>
<path fill="none" stroke="#56d88a" stroke-width="2" stroke-dasharray="5,2" d="M258,-324C258,-324 206,-324 206,-324 200,-324 194,-318 194,-312 194,-312 194,-300 194,-300 194,-294 200,-288 206,-288 206,-288 258,-288 258,-288 264,-288 270,-294 270,-300 270,-300 270,-312 270,-312 270,-318 264,-324 258,-324"/>
<text text-anchor="middle" x="232" y="-309" font-family="sans" font-size="10.00">QC</text>
<text text-anchor="middle" x="232" y="-298" font-family="sans" font-size="10.00">sample: Pps</text>
</g>
<!-- 2&#45;&gt;0 -->
<g id="edge2" class="edge">
<title>2&#45;&gt;0</title>
<path fill="none" stroke="grey" stroke-width="2" d="M237.82,-287.56C240.93,-277.33 244.43,-264.08 246,-252 256.3,-172.67 269.51,-148.47 246,-72 242.99,-62.22 237.49,-52.62 231.68,-44.33"/>
<polygon fill="grey" stroke="grey" stroke-width="2" points="234.41,-42.13 225.61,-36.23 228.81,-46.33 234.41,-42.13"/>
</g>
<!-- 5 -->
<g id="node6" class="node">
<title>5</title>
<path fill="none" stroke="#88d856" stroke-width="2" d="M225,-252C225,-252 181,-252 181,-252 175,-252 169,-246 169,-240 169,-240 169,-228 169,-228 169,-222 175,-216 181,-216 181,-216 225,-216 225,-216 231,-216 237,-222 237,-228 237,-228 237,-240 237,-240 237,-246 231,-252 225,-252"/>
<text text-anchor="middle" x="203" y="-231.5" font-family="sans" font-size="10.00">STAR_map</text>
</g>
<!-- 2&#45;&gt;5 -->
<g id="edge9" class="edge">
<title>2&#45;&gt;5</title>
<path fill="none" stroke="grey" stroke-width="2" d="M224.83,-287.7C221.57,-279.81 217.63,-270.3 214,-261.55"/>
<polygon fill="grey" stroke="grey" stroke-width="2" points="217.15,-260 210.09,-252.1 210.68,-262.68 217.15,-260"/>
</g>
<!-- 3 -->
<g id="node4" class="node">
<title>3</title>
<path fill="none" stroke="#56d88a" stroke-width="2" stroke-dasharray="5,2" d="M403.5,-324C403.5,-324 360.5,-324 360.5,-324 354.5,-324 348.5,-318 348.5,-312 348.5,-312 348.5,-300 348.5,-300 348.5,-294 354.5,-288 360.5,-288 360.5,-288 403.5,-288 403.5,-288 409.5,-288 415.5,-294 415.5,-300 415.5,-300 415.5,-312 415.5,-312 415.5,-318 409.5,-324 403.5,-324"/>
<text text-anchor="middle" x="382" y="-309" font-family="sans" font-size="10.00">QC</text>
<text text-anchor="middle" x="382" y="-298" font-family="sans" font-size="10.00">sample: js</text>
</g>
<!-- 3&#45;&gt;0 -->
<g id="edge3" class="edge">
<title>3&#45;&gt;0</title>
<path fill="none" stroke="grey" stroke-width="2" d="M386.87,-287.98C389.56,-277.67 392.64,-264.19 394,-252 395.78,-236.1 396.26,-231.84 394,-216 384.1,-146.67 382.46,-118.4 330,-72 306.2,-50.95 272.71,-37.11 247.16,-28.86"/>
<polygon fill="grey" stroke="grey" stroke-width="2" points="248.03,-25.47 237.44,-25.87 245.97,-32.16 248.03,-25.47"/>
</g>
<!-- 6 -->
<g id="node7" class="node">
<title>6</title>
<path fill="none" stroke="#88d856" stroke-width="2" d="M373,-252C373,-252 329,-252 329,-252 323,-252 317,-246 317,-240 317,-240 317,-228 317,-228 317,-222 323,-216 329,-216 329,-216 373,-216 373,-216 379,-216 385,-222 385,-228 385,-228 385,-240 385,-240 385,-246 379,-252 373,-252"/>
<text text-anchor="middle" x="351" y="-231.5" font-family="sans" font-size="10.00">STAR_map</text>
</g>
<!-- 3&#45;&gt;6 -->
<g id="edge10" class="edge">
<title>3&#45;&gt;6</title>
<path fill="none" stroke="grey" stroke-width="2" d="M374.34,-287.7C370.81,-279.73 366.54,-270.1 362.63,-261.26"/>
<polygon fill="grey" stroke="grey" stroke-width="2" points="365.82,-259.83 358.57,-252.1 359.42,-262.67 365.82,-259.83"/>
</g>
<!-- 4&#45;&gt;0 -->
<g id="edge4" class="edge">
<title>4&#45;&gt;0</title>
<path fill="none" stroke="grey" stroke-width="2" d="M63.42,-215.71C58.42,-197.1 53.39,-167.06 64,-144 86.41,-95.31 138.19,-58.5 173.65,-37.84"/>
<polygon fill="grey" stroke="grey" stroke-width="2" points="175.76,-40.67 182.73,-32.69 172.31,-34.58 175.76,-40.67"/>
</g>
<!-- 8 -->
<g id="node9" class="node">
<title>8</title>
<path fill="none" stroke="#56c1d8" stroke-width="2" d="M115,-180C115,-180 85,-180 85,-180 79,-180 73,-174 73,-168 73,-168 73,-156 73,-156 73,-150 79,-144 85,-144 85,-144 115,-144 115,-144 121,-144 127,-150 127,-156 127,-156 127,-168 127,-168 127,-174 121,-180 115,-180"/>
<text text-anchor="middle" x="100" y="-159.5" font-family="sans" font-size="10.00">rename</text>
</g>
<!-- 4&#45;&gt;8 -->
<g id="edge14" class="edge">
<title>4&#45;&gt;8</title>
<path fill="none" stroke="grey" stroke-width="2" d="M76.66,-215.7C80.19,-207.73 84.46,-198.1 88.37,-189.26"/>
<polygon fill="grey" stroke="grey" stroke-width="2" points="91.58,-190.67 92.43,-180.1 85.18,-187.83 91.58,-190.67"/>
</g>
<!-- 5&#45;&gt;0 -->
<g id="edge5" class="edge">
<title>5&#45;&gt;0</title>
<path fill="none" stroke="grey" stroke-width="2" d="M190.69,-215.78C184.35,-205.84 177.27,-192.8 174,-180 162.11,-133.5 159.89,-117.88 174,-72 177.01,-62.22 182.51,-52.62 188.32,-44.33"/>
<polygon fill="grey" stroke="grey" stroke-width="2" points="191.19,-46.33 194.39,-36.23 185.59,-42.13 191.19,-46.33"/>
</g>
<!-- 9 -->
<g id="node10" class="node">
<title>9</title>
<path fill="none" stroke="#56c1d8" stroke-width="2" d="M225,-180C225,-180 195,-180 195,-180 189,-180 183,-174 183,-168 183,-168 183,-156 183,-156 183,-150 189,-144 195,-144 195,-144 225,-144 225,-144 231,-144 237,-150 237,-156 237,-156 237,-168 237,-168 237,-174 231,-180 225,-180"/>
<text text-anchor="middle" x="210" y="-159.5" font-family="sans" font-size="10.00">rename</text>
</g>
<!-- 5&#45;&gt;9 -->
<g id="edge15" class="edge">
<title>5&#45;&gt;9</title>
<path fill="none" stroke="grey" stroke-width="2" d="M204.73,-215.7C205.5,-207.98 206.43,-198.71 207.29,-190.11"/>
<polygon fill="grey" stroke="grey" stroke-width="2" points="210.78,-190.4 208.29,-180.1 203.81,-189.71 210.78,-190.4"/>
</g>
<!-- 6&#45;&gt;0 -->
<g id="edge6" class="edge">
<title>6&#45;&gt;0</title>
<path fill="none" stroke="grey" stroke-width="2" d="M356.39,-215.8C361.21,-197.26 366.1,-167.28 356,-144 334.54,-94.55 282.01,-57.73 246.18,-37.29"/>
<polygon fill="grey" stroke="grey" stroke-width="2" points="247.46,-33.99 237.01,-32.21 244.06,-40.12 247.46,-33.99"/>
</g>
<!-- 10 -->
<g id="node11" class="node">
<title>10</title>
<path fill="none" stroke="#56c1d8" stroke-width="2" d="M335,-180C335,-180 305,-180 305,-180 299,-180 293,-174 293,-168 293,-168 293,-156 293,-156 293,-150 299,-144 305,-144 305,-144 335,-144 335,-144 341,-144 347,-150 347,-156 347,-156 347,-168 347,-168 347,-174 341,-180 335,-180"/>
<text text-anchor="middle" x="320" y="-159.5" font-family="sans" font-size="10.00">rename</text>
</g>
<!-- 6&#45;&gt;10 -->
<g id="edge16" class="edge">
<title>6&#45;&gt;10</title>
<path fill="none" stroke="grey" stroke-width="2" d="M343.34,-215.7C339.81,-207.73 335.54,-198.1 331.63,-189.26"/>
<polygon fill="grey" stroke="grey" stroke-width="2" points="334.82,-187.83 327.57,-180.1 328.42,-190.67 334.82,-187.83"/>
</g>
<!-- 7 -->
<g id="node8" class="node">
<title>7</title>
<path fill="none" stroke="#d8bc56" stroke-width="2" d="M225,-108C225,-108 195,-108 195,-108 189,-108 183,-102 183,-96 183,-96 183,-84 183,-84 183,-78 189,-72 195,-72 195,-72 225,-72 225,-72 231,-72 237,-78 237,-84 237,-84 237,-96 237,-96 237,-102 231,-108 225,-108"/>
<text text-anchor="middle" x="210" y="-87.5" font-family="sans" font-size="10.00">counts</text>
</g>
<!-- 7&#45;&gt;0 -->
<g id="edge7" class="edge">
<title>7&#45;&gt;0</title>
<path fill="none" stroke="grey" stroke-width="2" d="M210,-71.7C210,-63.98 210,-54.71 210,-46.11"/>
<polygon fill="grey" stroke="grey" stroke-width="2" points="213.5,-46.1 210,-36.1 206.5,-46.1 213.5,-46.1"/>
</g>
<!-- 8&#45;&gt;7 -->
<g id="edge11" class="edge">
<title>8&#45;&gt;7</title>
<path fill="none" stroke="grey" stroke-width="2" d="M126.91,-143.88C141.16,-134.81 158.85,-123.55 174.24,-113.76"/>
<polygon fill="grey" stroke="grey" stroke-width="2" points="176.43,-116.51 182.99,-108.19 172.67,-110.61 176.43,-116.51"/>
</g>
<!-- 9&#45;&gt;7 -->
<g id="edge12" class="edge">
<title>9&#45;&gt;7</title>
<path fill="none" stroke="grey" stroke-width="2" d="M210,-143.7C210,-135.98 210,-126.71 210,-118.11"/>
<polygon fill="grey" stroke="grey" stroke-width="2" points="213.5,-118.1 210,-108.1 206.5,-118.1 213.5,-118.1"/>
</g>
<!-- 10&#45;&gt;7 -->
<g id="edge13" class="edge">
<title>10&#45;&gt;7</title>
<path fill="none" stroke="grey" stroke-width="2" d="M293.09,-143.88C278.84,-134.81 261.15,-123.55 245.76,-113.76"/>
<polygon fill="grey" stroke="grey" stroke-width="2" points="247.33,-110.61 237.01,-108.19 243.57,-116.51 247.33,-110.61"/>
</g>
</g>
</svg>
